<svg width="24" height="17" viewBox="0 0 24 17" fill="none" xmlns="http://www.w3.org/2000/svg">
<path d="M24 0.830045V15.7854C21.8525 16.8728 19.263 17.09 16.7999 16.5466C16.6106 16.5466 11.3053 15.3505 8.71583 15.0788C7.70497 15.0248 6.69468 14.9157 5.68439 14.9702C3.72613 15.0788 1.83133 15.2965 0 15.7854V0.830045C1.83133 0.341166 3.72613 0.123454 5.68439 0.0148758C6.69468 -0.0396915 7.70497 0.069443 8.71583 0.123454C8.91472 0.144056 9.13004 0.170782 9.35725 0.201407C12.0901 0.571685 16.6254 1.5912 16.7999 1.5912C19.263 2.13521 21.8525 1.91749 24 0.830045Z" fill="#B31942"/>
<path d="M24 8.61333V11.0433C21.8615 11.8974 19.378 12.0349 17.0056 11.5388C16.8055 11.5388 11.205 10.3428 8.47162 10.0711C7.40466 10.0171 6.33771 9.90792 5.27132 9.96248C3.46322 10.0577 1.70611 10.2359 0 10.6067V8.1857C1.70611 7.81431 3.46322 7.63613 5.27132 7.54092C6.33771 7.48691 7.4058 7.57655 8.47162 7.65005C11.2447 7.84104 16.8112 9.08718 17.0056 9.1178C19.5729 9.52149 21.8695 9.40567 24 8.61333Z" fill="white"/>
<path d="M24 13.5765V15.9524C21.8525 17.0399 19.263 17.257 16.7999 16.7136C16.6106 16.7136 11.3053 15.5176 8.71583 15.2458C7.70497 15.1918 6.69468 15.0827 5.68439 15.1373C3.72613 15.2458 1.83133 15.4636 0 15.9524V13.1394C1.70611 12.7686 3.46322 12.5904 5.27132 12.4952C6.33771 12.4412 7.40466 12.5498 8.47162 12.6043C11.205 12.8761 16.8055 14.0721 17.0056 14.0721C19.378 14.5682 21.8615 14.4301 24 13.5765Z" fill="white"/>
<path d="M24.0003 3.89046V6.31258C21.8613 7.16617 19.3777 7.30426 17.0058 6.80814C16.8189 6.80814 11.951 5.77136 9.07422 5.40888L9.10878 2.99121C11.9895 3.35759 16.8194 4.38602 17.0058 4.38602C19.3777 4.88214 21.8613 4.7446 24.0003 3.89046Z" fill="white"/>
<path d="M9.35725 0.201407V0.201964L9.25526 7.72335C5.18009 7.26231 1.61602 7.93438 0 8.32693V0.830045C1.83133 0.341166 3.72613 0.123454 5.68439 0.0148758C6.69468 -0.0396915 7.70497 0.069443 8.71583 0.123454C8.91472 0.144055 9.13004 0.170782 9.35725 0.201407Z" fill="#0A3161"/>
<path d="M2.33343 1.48633L2.65187 2.12053L3.36468 2.22243L2.84906 2.71632L2.97088 3.41345L2.33343 3.08437L1.69654 3.41345L1.8178 2.71632L1.30273 2.22243L2.01498 2.12053L2.33343 1.48633Z" fill="white"/>
<path d="M2.62794 4.65254L2.94638 5.28675L3.65863 5.38864L3.143 5.88254L3.26483 6.57966L2.62794 6.25059L1.99048 6.57966L2.11231 5.88254L1.59668 5.38864L2.30893 5.28675L2.62794 4.65254Z" fill="white"/>
<path d="M4.88616 2.70605L5.20517 3.34026L5.91742 3.44216L5.40179 3.93549L5.52361 4.63262L4.88616 4.30354L4.24927 4.63262L4.3711 3.93549L3.85547 3.44216L4.56772 3.34026L4.88616 2.70605Z" fill="white"/>
<path d="M7.43922 0.955887L7.75766 1.59009L8.46991 1.69199L7.95428 2.18532L8.0761 2.88245L7.43922 2.55337L6.80176 2.88245L6.92359 2.18532L6.40796 1.69199L7.12021 1.59009L7.43922 0.955887Z" fill="white"/>
<path d="M7.19573 4.55371L7.51474 5.18792L8.22699 5.28981L7.71136 5.78315L7.83318 6.48027L7.19573 6.1512L6.55884 6.48027L6.68067 5.78315L6.16504 5.28981L6.87729 5.18792L7.19573 4.55371Z" fill="white"/>
</svg>
