<svg width="105" height="45" viewBox="0 0 105 45" fill="none" xmlns="http://www.w3.org/2000/svg">
<path d="M34.5834 0H30.2415V26.25H34.5834V0Z" fill="black"/>
<path d="M49.6553 26.2513H53.9973V8.46484H49.6553V17.8612H49.7365C49.7365 21.7849 46.264 22.175 45.3133 22.175C42.7858 22.175 42.2351 19.7891 42.2351 18.3248V8.46484H37.8931V18.4718C37.8931 20.9368 38.7626 22.9382 40.0264 24.4025C41.209 25.5559 43.1046 26.2513 45.2379 26.2513C46.7394 26.2513 48.7104 25.8668 49.6611 24.787V26.2513H49.6553Z" fill="black"/>
<path d="M58.1835 26.2522H62.5255V12.7003H65.6849V8.46575H62.5255V2.15625H58.1835V8.46575H54.9487V12.7003H58.1835V26.2522Z" fill="black"/>
<path d="M75.7891 26.1699C78.2354 26.1699 80.5253 25.3218 82.2644 23.784L82.8963 23.1678L79.8992 20.2448L79.2673 21.0137C78.3224 21.8618 77.134 22.3197 75.7949 22.3197C72.7978 22.3197 70.5833 20.2392 70.5833 17.1636C70.5833 14.0823 72.7166 12.0809 75.7949 12.0809C77.134 12.0809 78.3224 12.4654 79.2673 13.3869L79.8992 13.924L82.7398 11.1537L82.1079 10.5375C80.2934 9.07316 78.1601 8.15161 75.7949 8.15161C70.4268 8.07246 66.479 11.8491 66.479 17.1579C66.4732 22.1671 70.4964 26.1699 75.7891 26.1699Z" fill="black"/>
<path d="M89.2831 16.3165C89.2831 12.3928 92.2802 12.0027 93.2309 12.0027C95.7584 12.0027 95.7584 14.3886 95.7584 15.8529V26.2443H100.1V15.7794C100.182 13.467 99.625 11.3921 98.2048 10.007C97.0222 8.85365 95.4396 8.15825 93.4686 8.15825C91.9671 8.15825 90.3903 8.5427 89.2077 9.62255V0H84.8657V26.25H89.2077V16.3165H89.2831Z" fill="black"/>
<path d="M72.4712 17.1642C72.4712 18.8603 73.8915 20.1663 75.5494 20.1663C77.2885 20.1663 78.6277 18.7812 78.6277 17.1642C78.6277 15.4681 77.2074 14.1621 75.5494 14.1621C73.8915 14.1621 72.4712 15.4738 72.4712 17.1642Z" fill="#E42320"/>
<path d="M18.002 26.1693C21.4745 26.1693 24.7904 24.8633 26.999 22.4718L27.6309 21.8556L24.7904 18.9326L24.2396 19.7015C22.6628 21.2393 20.2919 22.1665 18.002 22.1665C13.1093 22.1665 9.63686 18.469 9.63686 13.4655C9.63686 8.38287 13.1093 4.76452 17.9267 4.76452C20.2165 4.76452 22.3498 5.68607 24.1643 7.22952L24.7962 7.84577L27.6367 5.07547L26.999 4.45922C24.628 1.99422 21.3933 0.761719 18.002 0.761719C10.8948 0.84087 5.60791 6.23447 5.60791 13.4712C5.60791 20.7079 10.8948 26.1693 18.002 26.1693Z" fill="black"/>
<path d="M31.8974 38.0783H28.0605C27.9666 38.0783 27.7855 37.9912 27.7855 37.9103L26.5982 34.5181C26.5043 34.2629 26.0482 34.2629 25.961 34.5181L24.7737 37.9103C24.7737 37.9974 24.5926 38.0783 24.4987 38.0783H20.6618C20.3868 38.0783 20.2056 38.4144 20.4807 38.5887L23.5864 40.7049C23.6803 40.7921 23.7675 40.873 23.6803 41.041L22.493 44.4332C22.3991 44.6884 22.768 44.9436 22.9491 44.7693L26.0549 42.6531C26.1488 42.566 26.3299 42.566 26.4171 42.6531L29.5228 44.7693C29.7978 44.9374 30.0728 44.6822 29.9789 44.4332L28.7917 41.041C28.7917 40.9539 28.7917 40.7858 28.8856 40.7049L31.9913 38.5887C32.2663 38.4144 32.1724 38.0783 31.8974 38.0783Z" fill="#E42320"/>
<path d="M45.0224 38.0783H41.1855C41.0916 38.0783 40.9105 37.9912 40.9105 37.9103L39.7232 34.5181C39.6293 34.2629 39.1732 34.2629 39.086 34.5181L37.8987 37.9103C37.8987 37.9974 37.7176 38.0783 37.6237 38.0783H33.7868C33.5118 38.0783 33.3306 38.4144 33.6057 38.5887L36.7114 40.7049C36.8053 40.7921 36.8925 40.873 36.8053 41.041L35.618 44.4332C35.5241 44.6884 35.893 44.9436 36.0741 44.7693L39.1799 42.6531C39.2738 42.566 39.4549 42.566 39.5421 42.6531L42.6478 44.7693C42.9228 44.9374 43.1978 44.6822 43.1039 44.4332L41.9167 41.041C41.9167 40.9539 41.9167 40.7858 42.0106 40.7049L45.1163 38.5887C45.3913 38.4144 45.2974 38.0783 45.0224 38.0783Z" fill="#E42320"/>
<path d="M58.1474 38.0783H54.3105C54.2166 38.0783 54.0355 37.9912 54.0355 37.9103L52.8482 34.5181C52.7543 34.2629 52.2982 34.2629 52.211 34.5181L51.0237 37.9103C51.0237 37.9974 50.8426 38.0783 50.7487 38.0783H46.9118C46.6368 38.0783 46.4556 38.4144 46.7307 38.5887L49.8364 40.7049C49.9303 40.7921 50.0175 40.873 49.9303 41.041L48.743 44.4332C48.6491 44.6884 49.018 44.9436 49.1991 44.7693L52.3049 42.6531C52.3988 42.566 52.5799 42.566 52.6671 42.6531L55.7728 44.7693C56.0478 44.9374 56.3228 44.6822 56.2289 44.4332L55.0417 41.041C55.0417 40.9539 55.0417 40.7858 55.1356 40.7049L58.2413 38.5887C58.5163 38.4144 58.4224 38.0783 58.1474 38.0783Z" fill="#E42320"/>
<path d="M71.2724 38.0783H67.4355C67.3416 38.0783 67.1605 37.9912 67.1605 37.9103L65.9732 34.5181C65.8793 34.2629 65.4232 34.2629 65.336 34.5181L64.1487 37.9103C64.1487 37.9974 63.9676 38.0783 63.8737 38.0783H60.0368C59.7618 38.0783 59.5806 38.4144 59.8557 38.5887L62.9614 40.7049C63.0553 40.7921 63.1425 40.873 63.0553 41.041L61.868 44.4332C61.7741 44.6884 62.143 44.9436 62.3241 44.7693L65.4299 42.6531C65.5238 42.566 65.7049 42.566 65.7921 42.6531L68.8978 44.7693C69.1728 44.9374 69.4478 44.6822 69.3539 44.4332L68.1667 41.041C68.1667 40.9539 68.1667 40.7858 68.2606 40.7049L71.3663 38.5887C71.6413 38.4144 71.5474 38.0783 71.2724 38.0783Z" fill="#E42320"/>
<path d="M84.3974 38.0783H80.5605C80.4666 38.0783 80.2855 37.9912 80.2855 37.9103L79.0982 34.5181C79.0043 34.2629 78.5482 34.2629 78.461 34.5181L77.2737 37.9103C77.2737 37.9974 77.0926 38.0783 76.9987 38.0783H73.1618C72.8868 38.0783 72.7056 38.4144 72.9807 38.5887L76.0864 40.7049C76.1803 40.7921 76.2675 40.873 76.1803 41.041L74.993 44.4332C74.8991 44.6884 75.268 44.9436 75.4491 44.7693L78.5549 42.6531C78.6488 42.566 78.8299 42.566 78.9171 42.6531L82.0228 44.7693C82.2978 44.9374 82.5728 44.6822 82.4789 44.4332L81.2917 41.041C81.2917 40.9539 81.2917 40.7858 81.3856 40.7049L84.4913 38.5887C84.7663 38.4144 84.6724 38.0783 84.3974 38.0783Z" fill="#E42320"/>
</svg>
