<svg width="141" height="28" viewBox="0 0 141 28" fill="none" xmlns="http://www.w3.org/2000/svg">
<g clip-path="url(#clip0_10701_5912)">
<mask id="mask0_10701_5912" style="mask-type:luminance" maskUnits="userSpaceOnUse" x="0" y="0" width="141" height="28">
<path d="M0 0H141V28H0V0Z" fill="white"/>
</mask>
<g mask="url(#mask0_10701_5912)">
<path d="M19.6943 17.7853V17.106V16.1678V11.7521V10.814L20.4017 9.3097L23.9385 6.44675C24.41 6.04239 25.1174 6.38206 25.1174 7.01288V20.6968C25.1174 21.3276 24.3943 21.6673 23.9228 21.2629L19.6943 17.7853Z" fill="#00AC47"/>
<path d="M7.9917 4.375L2.2832 10.2083H7.9917V4.375Z" fill="#EA4335"/>
<path d="M7.9917 10.209H2.2832V17.7923H7.9917V10.209Z" fill="#2684FC"/>
<path d="M2.2832 17.791V21.6799C2.2832 22.7493 3.13948 23.6243 4.18605 23.6243H7.9917V17.791H2.2832Z" fill="#0066DA"/>
<path d="M20.4082 6.29714C20.4082 5.23997 19.5701 4.375 18.5458 4.375H14.821H7.99219V10.2083H14.9851V14L20.4082 13.8255V6.29714Z" fill="#FFBA00"/>
<path d="M14.9851 17.7917H7.99219V23.625H14.821H18.5458C19.5701 23.625 20.4082 22.7613 20.4082 21.7057V14H14.9851V17.7917Z" fill="#00AC47"/>
<path d="M20.4075 9.33398V18.3757L14.9844 14.0007L20.4075 9.33398Z" fill="#00832D"/>
<path d="M100.498 21.0606H98.8174V7.69531H100.498L105.047 15.834H105.12L109.668 7.69531H111.349V21.0606H109.668V13.1273L109.741 10.8873H109.668L105.576 18.2233H104.59L100.498 10.8873H100.425L100.498 13.1273V21.0606Z" fill="#1E1212"/>
<path d="M117.707 21.3592C116.392 21.3592 115.308 20.8988 114.455 19.9779C113.603 19.057 113.177 17.8934 113.177 16.4872C113.177 15.0934 113.591 13.9361 114.419 13.0152C115.247 12.0819 116.306 11.6152 117.597 11.6152C118.925 11.6152 119.978 12.057 120.758 12.9406C121.549 13.8117 121.945 15.0374 121.945 16.6179L121.927 16.8046H114.894C114.918 17.7006 115.21 18.4224 115.771 18.9699C116.331 19.5174 117.001 19.7912 117.78 19.7912C118.852 19.7912 119.692 19.2437 120.301 18.1486L121.799 18.8952C121.397 19.6668 120.837 20.2704 120.118 20.7059C119.412 21.1414 118.608 21.3592 117.707 21.3592ZM115.022 15.3859H120.155C120.106 14.7512 119.85 14.2286 119.388 13.8179C118.937 13.3948 118.328 13.1832 117.561 13.1832C116.928 13.1832 116.38 13.3824 115.917 13.7806C115.466 14.1788 115.168 14.7139 115.022 15.3859Z" fill="#1E1212"/>
<path d="M127.59 21.3592C126.275 21.3592 125.191 20.8988 124.338 19.9779C123.486 19.057 123.06 17.8934 123.06 16.4872C123.06 15.0934 123.474 13.9361 124.302 13.0152C125.13 12.0819 126.189 11.6152 127.48 11.6152C128.808 11.6152 129.861 12.057 130.64 12.9406C131.432 13.8117 131.828 15.0374 131.828 16.6179L131.81 16.8046H124.777C124.801 17.7006 125.093 18.4224 125.654 18.9699C126.214 19.5174 126.883 19.7912 127.663 19.7912C128.735 19.7912 129.575 19.2437 130.184 18.1486L131.682 18.8952C131.28 19.6668 130.72 20.2704 130.001 20.7059C129.295 21.1414 128.491 21.3592 127.59 21.3592ZM124.905 15.3859H130.038C129.989 14.7512 129.733 14.2286 129.27 13.8179C128.82 13.3948 128.211 13.1832 127.444 13.1832C126.81 13.1832 126.262 13.3824 125.8 13.7806C125.349 14.1788 125.051 14.7139 124.905 15.3859Z" fill="#1E1212"/>
<path d="M136.641 21.2093C135.91 21.2093 135.302 20.9791 134.814 20.5186C134.339 20.0582 134.096 19.4173 134.084 18.5959V13.4813H132.513V11.9133H134.084V9.11328H135.764V11.9133H137.956V13.4813H135.764V18.0359C135.764 18.6457 135.88 19.0626 136.111 19.2866C136.343 19.4982 136.605 19.6039 136.897 19.6039C137.031 19.6039 137.159 19.5915 137.28 19.5666C137.414 19.5293 137.536 19.4857 137.646 19.4359L138.176 20.9666C137.737 21.1284 137.226 21.2093 136.641 21.2093Z" fill="#1E1212"/>
<path d="M43.407 15.3972V13.3569H50.0903C50.1585 13.7165 50.1987 14.1444 50.1987 14.6078C50.1987 16.1381 49.7886 18.0326 48.4699 19.3809C47.1863 20.7472 45.5469 21.4757 43.3725 21.4757C39.3443 21.4757 35.958 18.1236 35.958 14.0064C35.958 9.88926 39.3443 6.53711 43.3725 6.53711C45.6002 6.53711 47.1863 7.42996 48.3808 8.59587L46.9726 10.0352C46.1169 9.21531 44.9586 8.57781 43.3725 8.57781C40.4318 8.57781 38.1324 11.0007 38.1324 14.0068C38.1324 17.013 40.4318 19.4358 43.3725 19.4358C45.2797 19.4358 46.3669 18.6524 47.0616 17.9419C47.6282 17.3631 48.0009 16.5327 48.1459 15.3976L43.407 15.3972Z" fill="#1E1212"/>
<path d="M60.383 16.667C60.383 19.4362 58.262 21.4765 55.6597 21.4765C53.0575 21.4765 50.9365 19.4362 50.9365 16.667C50.9365 13.8797 53.0575 11.8574 55.6597 11.8574C58.2622 11.8574 60.383 13.8793 60.383 16.667ZM58.3156 16.667C58.3156 14.9362 57.086 13.7522 55.66 13.7522C54.2343 13.7522 53.0041 14.9362 53.0041 16.667C53.0041 18.3794 54.2338 19.5817 55.66 19.5817C57.086 19.5817 58.3156 18.3794 58.3156 16.667Z" fill="#1E1212"/>
<path d="M70.6867 16.667C70.6867 19.4362 68.5657 21.4765 65.9634 21.4765C63.3612 21.4765 61.2402 19.4362 61.2402 16.667C61.2402 13.8797 63.3612 11.8574 65.9634 11.8574C68.566 11.8574 70.6867 13.8793 70.6867 16.667ZM68.6193 16.667C68.6193 14.9362 67.3897 13.7522 65.9637 13.7522C64.538 13.7522 63.3079 14.9362 63.3079 16.667C63.3079 18.3794 64.5377 19.5817 65.9637 19.5817C67.3897 19.5817 68.6193 18.3794 68.6193 16.667Z" fill="#1E1212"/>
<path d="M80.5628 12.1489V20.7841C80.5628 24.3367 78.5132 25.7941 76.0891 25.7941C73.8077 25.7941 72.4356 24.2273 71.9184 22.9523L73.7186 22.187C74.0394 22.9704 74.8235 23.8993 76.0891 23.8993C77.6398 23.8993 78.6022 22.9155 78.6022 21.0756V20.3832H78.5309C78.0673 20.9661 77.1762 21.4761 76.0534 21.4761C73.7006 21.4761 71.5439 19.3813 71.5439 16.685C71.5439 13.9703 73.7006 11.8574 76.0534 11.8574C77.1762 11.8574 78.0673 12.3674 78.5309 12.9323H78.6022V12.1489H80.5628ZM78.7447 16.6854C78.7447 14.9911 77.6395 13.7522 76.2315 13.7522C74.8058 13.7522 73.6113 14.9911 73.6113 16.6854C73.6113 18.3613 74.8055 19.5821 76.2315 19.5821C77.6398 19.5821 78.7447 18.3613 78.7447 16.6854Z" fill="#1E1212"/>
<path d="M84.0644 7.0957V21.1855H81.9971V7.0957H84.0644Z" fill="#1E1212"/>
<path d="M92.0484 18.2503L93.6525 19.3432C93.1353 20.1266 91.888 21.4746 89.7314 21.4746C87.0578 21.4746 85.0615 19.3613 85.0615 16.665C85.0615 13.8048 87.0755 11.8555 89.4993 11.8555C91.9414 11.8555 93.1353 13.8413 93.5278 14.9162L93.7416 15.4626L87.4497 18.1224C87.9312 19.0878 88.6799 19.5798 89.7314 19.5798C90.7829 19.5806 91.5138 19.0521 92.0484 18.2503ZM87.1112 16.5199L91.3172 14.7345C91.0854 14.1335 90.3904 13.7145 89.5704 13.7145C88.5194 13.7141 87.0578 14.6615 87.1112 16.5199Z" fill="#1E1212"/>
</g>
</g>
<defs>
<clipPath id="clip0_10701_5912">
<rect width="141" height="28" fill="white"/>
</clipPath>
</defs>
</svg>
