<svg width="45" height="45" viewBox="0 0 45 45" fill="none" xmlns="http://www.w3.org/2000/svg">
<rect width="45" height="45" fill="#25D366"/>
<g clip-path="url(#clip0_10701_5941)">
<path fill-rule="evenodd" clip-rule="evenodd" d="M31.5031 14.485C29.2473 12.2388 26.2471 11.0011 23.0504 11C16.4634 11 11.1026 16.3307 11.1003 22.883C11.0991 24.9776 11.6498 27.0221 12.6955 28.8239L11 34.9825L17.3349 33.33C19.0802 34.2771 21.0455 34.7757 23.0453 34.7762H23.0504C29.6363 34.7762 34.9977 29.445 35 22.8927C35.0011 19.7171 33.7595 16.7318 31.5031 14.4856V14.485ZM23.0504 32.7693H23.0464C21.2644 32.7688 19.5163 32.2924 17.991 31.3926L17.6283 31.1784L13.8689 32.1591L14.8722 28.5139L14.6362 28.1401C13.642 26.5674 13.1166 24.7497 13.1177 22.8836C13.12 17.4378 17.5756 13.0069 23.0545 13.0069C25.7073 13.008 28.201 14.0366 30.0763 15.9039C31.9517 17.7706 32.9837 20.2527 32.9825 22.8915C32.9802 28.3379 28.5247 32.7688 23.0504 32.7688V32.7693ZM28.4983 25.372C28.1998 25.2232 26.7319 24.5052 26.4579 24.4061C26.1841 24.3069 25.9853 24.2574 25.7864 24.5548C25.5876 24.8523 25.0152 25.5213 24.841 25.719C24.6668 25.9173 24.4926 25.9418 24.1941 25.793C23.8956 25.6443 22.9335 25.3309 21.7927 24.3195C20.9052 23.532 20.3058 22.5599 20.1317 22.2624C19.9575 21.965 20.1133 21.8043 20.2623 21.6567C20.3963 21.5234 20.5608 21.3097 20.7103 21.1365C20.8599 20.9633 20.9092 20.8391 21.0089 20.6413C21.1086 20.443 21.0587 20.2698 20.9843 20.1211C20.9097 19.9724 20.3127 18.5107 20.0635 17.9164C19.8211 17.3375 19.5747 17.4162 19.3919 17.4065C19.2177 17.3979 19.0189 17.3962 18.8195 17.3962C18.6201 17.3962 18.2969 17.4703 18.0231 17.7677C17.7492 18.0652 16.9779 18.7837 16.9779 20.2447C16.9779 21.7057 18.0477 23.1183 18.1973 23.3166C18.3468 23.5149 20.3029 26.5139 23.2979 27.8005C24.0102 28.1065 24.5665 28.2894 25.0003 28.4262C25.7154 28.6524 26.3663 28.6205 26.8808 28.5441C27.4544 28.4587 28.6473 27.8256 28.896 27.1321C29.1447 26.4386 29.1447 25.8437 29.0702 25.7201C28.9957 25.5964 28.7963 25.5218 28.4978 25.3731L28.4983 25.372Z" fill="white"/>
</g>
<defs>
<clipPath id="clip0_10701_5941">
<rect width="24" height="24" fill="white" transform="translate(11 11)"/>
</clipPath>
</defs>
</svg>
