<svg width="15" height="15" viewBox="0 0 15 15" fill="none" xmlns="http://www.w3.org/2000/svg">
<path d="M8.31938 1.46279L9.49258 3.82859C9.65258 4.15791 10.0792 4.4738 10.4392 4.53429L12.5656 4.8905C13.9254 5.11902 14.2454 6.11373 13.2655 7.095L11.6124 8.7618C11.3324 9.04407 11.1791 9.58847 11.2657 9.97833L11.739 12.0417C12.1123 13.6749 11.2524 14.3067 9.81924 13.4531L7.82611 12.2635C7.46618 12.0484 6.87291 12.0484 6.50624 12.2635L4.51316 13.4531C3.08664 14.3067 2.22008 13.6681 2.59337 12.0417L3.06665 9.97833C3.1533 9.58847 2.99999 9.04407 2.72002 8.7618L1.06687 7.095C0.0936427 6.11373 0.406943 5.11902 1.76679 4.8905L3.89322 4.53429C4.24652 4.4738 4.67314 4.15791 4.83312 3.82859L6.00631 1.46279C6.64624 0.179072 7.68611 0.179072 8.31938 1.46279Z" stroke="#E8704E" stroke-linecap="round" stroke-linejoin="round"/>
</svg>
