<svg width="16" height="16" viewBox="0 0 16 16" fill="none" xmlns="http://www.w3.org/2000/svg">
<path d="M6.66699 5.33789H12.667M6.66699 8.00827H8.66699M12.667 8.00827H10.667M6.66699 10.6787H8.66699M12.667 10.6787H10.667" stroke="#E8704E" stroke-linejoin="round"/>
<path d="M4.6788 5.0184L4.69797 12.057C4.70039 12.9481 3.98177 13.6719 3.09447 13.6719M4.6788 5.0184H1.35938L1.37857 12.0658C1.38098 12.9535 2.09818 13.6719 2.98206 13.6719H3.09447M4.6788 5.0184L4.69653 2.40224C4.69677 2.36555 4.72646 2.33594 4.76299 2.33594H14.6238C14.6606 2.33594 14.6904 2.3659 14.6903 2.40282L14.6723 11.7709C14.706 13.0175 13.9857 13.594 13.0947 13.6719H3.09447" stroke="#E8704E"/>
</svg>
