<svg width="16" height="16" viewBox="0 0 16 16" fill="none" xmlns="http://www.w3.org/2000/svg">
<path d="M5 9.64841H11M5 6.32227H8.66667" stroke="#E8704E" stroke-linejoin="round"/>
<path d="M7.74121 2.14551C10.4088 2.02105 11.9947 2.79394 12.9199 3.89551C13.8623 5.01765 14.1993 6.57513 14.165 8.16309V8.17383C14.1649 9.70578 13.5789 11.0991 12.5117 12.0752C11.4471 13.0489 9.86708 13.6404 7.81836 13.4971L7.80078 13.4961H7.7832C6.54877 13.4961 5.51871 13.3732 4.63184 12.8828L4.44336 12.7783L4.2373 12.8447L2.19727 13.498L2.86816 11.8203L2.97363 11.5566L2.80078 11.3311C2.05921 10.3617 1.83594 9.09776 1.83594 8.01465C1.83594 6.42117 2.20456 4.98363 3.08984 3.94043C3.96396 2.91053 5.40829 2.1877 7.72754 2.14648H7.73438L7.74121 2.14551Z" stroke="#E8704E"/>
</svg>
