<svg width="16" height="16" viewBox="0 0 16 16" fill="none" xmlns="http://www.w3.org/2000/svg">
<path d="M14.3337 7.99935C14.3337 11.4971 11.4981 14.3327 8.00033 14.3327C6.91493 14.3327 5.89326 14.0596 5.00033 13.5785C3.66699 12.9993 2.33366 13.2743 1.66699 13.3327C1.99295 12.7771 2.40647 11.2539 1.98927 9.99935C1.78019 9.37068 1.66699 8.69822 1.66699 7.99935C1.66699 4.50154 4.50252 1.66602 8.00033 1.66602C11.4981 1.66602 14.3337 4.50154 14.3337 7.99935Z" stroke="#E8704E" stroke-linecap="square"/>
<path d="M6.33301 6.33268C6.33301 5.41221 7.07921 4.66602 7.99967 4.66602C8.92014 4.66602 9.66634 5.41221 9.66634 6.33268C9.66634 6.90395 9.37894 7.40808 8.94081 7.70842C8.48521 8.02062 7.99967 8.44708 7.99967 8.99935" stroke="#E8704E" stroke-linecap="square"/>
<path d="M8.08301 11.1667H7.99967M8.16634 11.1667C8.16634 11.2587 8.09174 11.3333 7.99967 11.3333C7.90761 11.3333 7.83301 11.2587 7.83301 11.1667C7.83301 11.0746 7.90761 11 7.99967 11C8.09174 11 8.16634 11.0746 8.16634 11.1667Z" stroke="#E8704E" stroke-linecap="round" stroke-linejoin="round"/>
</svg>
