<svg width="16" height="16" viewBox="0 0 16 16" fill="none" xmlns="http://www.w3.org/2000/svg">
<path d="M10.3337 7.33333C10.3337 6.04467 9.28899 5 8.00033 5C6.71166 5 5.66699 6.04467 5.66699 7.33333C5.66699 8.622 6.71166 9.66667 8.00033 9.66667C9.28899 9.66667 10.3337 8.622 10.3337 7.33333Z" stroke="#E8704E" stroke-linecap="square"/>
<path d="M10.3213 7.5666C10.536 7.63167 10.7637 7.66667 10.9995 7.66667C12.2882 7.66667 13.3329 6.622 13.3329 5.33333C13.3329 4.04467 12.2882 3 10.9995 3C9.7896 3 8.79473 3.92093 8.67773 5.10009" stroke="#E8704E" stroke-linecap="square"/>
<path d="M7.32213 5.10009C7.20513 3.92093 6.21027 3 5.00033 3C3.71166 3 2.66699 4.04467 2.66699 5.33333C2.66699 6.622 3.71166 7.66667 5.00033 7.66667C5.2362 7.66667 5.46389 7.63167 5.67851 7.5666" stroke="#E8704E" stroke-linecap="square"/>
<path d="M14.6667 10.9993C14.6667 9.15842 13.0251 7.66602 11 7.66602" stroke="#E8704E" stroke-linecap="square"/>
<path d="M11.6663 12.9993C11.6663 11.1584 10.0247 9.66602 7.99967 9.66602C5.97463 9.66602 4.33301 11.1584 4.33301 12.9993" stroke="#E8704E" stroke-linecap="square"/>
<path d="M4.99967 7.66602C2.97463 7.66602 1.33301 9.15842 1.33301 10.9993" stroke="#E8704E" stroke-linecap="square"/>
</svg>
