<svg width="16" height="16" viewBox="0 0 16 16" fill="none" xmlns="http://www.w3.org/2000/svg">
<path d="M9.66634 8.00068C9.66634 8.92114 8.92014 9.66734 7.99967 9.66734M9.66634 8.00068C9.66634 7.08014 8.92014 6.33398 7.99967 6.33398M9.66634 8.00068H10.6663M7.99967 9.66734C7.07921 9.66734 6.33301 8.92114 6.33301 8.00068M7.99967 9.66734V10.6673M7.99967 6.33398C7.07921 6.33398 6.33301 7.08014 6.33301 8.00068M7.99967 6.33398V5.33398M6.33301 8.00068H5.33301M9.17821 6.82214L9.88527 6.11503M6.82114 9.17914L6.11405 9.88628M9.17821 9.17914L9.88527 9.88628M6.82114 6.82214L6.11405 6.11503" stroke="#E8704E" stroke-linecap="square"/>
<path d="M2.66634 11.0007C2.66634 12.1053 3.56177 13.0007 4.66634 13.0007C4.66634 13.9212 5.41253 14.6674 6.33301 14.6674C7.25347 14.6674 7.99967 13.9212 7.99967 13.0007C7.99967 13.9212 8.74587 14.6673 9.66634 14.6673C10.5868 14.6673 11.333 13.9211 11.333 13.0007C12.4376 13.0007 13.333 12.1052 13.333 11.0007C13.333 10.6215 13.2275 10.2671 13.0443 9.965C13.9681 9.78827 14.6663 8.976 14.6663 8.00067C14.6663 7.02527 13.9681 6.21302 13.0443 6.03632C13.2275 5.73423 13.333 5.37976 13.333 5.00065C13.333 3.89608 12.4376 3.00065 11.333 3.00065C11.333 2.08018 10.5868 1.33398 9.66634 1.33398C8.74587 1.33398 7.99967 2.08024 7.99967 3.00071C7.99967 2.08024 7.25347 1.33404 6.33301 1.33404C5.41253 1.33404 4.66634 2.08024 4.66634 3.00071C3.56177 3.00071 2.66634 3.89614 2.66634 5.00071C2.66634 5.37982 2.77182 5.73429 2.95503 6.03638C2.03119 6.21308 1.33301 7.02534 1.33301 8.00074C1.33301 8.97607 2.03119 9.78834 2.95503 9.96507C2.77182 10.2671 2.66634 10.6216 2.66634 11.0007Z" stroke="#E8704E" stroke-linecap="square"/>
</svg>
