<svg width="16" height="16" viewBox="0 0 16 16" fill="none" xmlns="http://www.w3.org/2000/svg">
<path d="M5 9.64841H11M5 6.32227H8.66667" stroke="white" stroke-width="1.25" stroke-linejoin="round"/>
<path d="M7.74707 2.27051C10.3867 2.14735 11.9304 2.91145 12.8242 3.97559C13.7396 5.06548 14.074 6.58815 14.04 8.16016V8.17383C14.0399 9.67348 13.467 11.0328 12.4277 11.9834C11.3917 12.931 9.84637 13.5133 7.82715 13.3721L7.80469 13.3711H7.7832C6.55443 13.3711 5.55075 13.2481 4.69238 12.7734L4.45605 12.6426L4.19922 12.7256L2.41211 13.2988L2.98438 11.8662L3.11523 11.5371L2.90039 11.2549C2.18245 10.3164 1.96094 9.08449 1.96094 8.01465C1.96094 6.43806 2.32624 5.03402 3.18555 4.02148C4.0308 3.02559 5.43647 2.31224 7.72949 2.27148H7.73828L7.74707 2.27051Z" stroke="white" stroke-width="1.25"/>
</svg>
