<svg width="107" height="24" viewBox="0 0 107 24" fill="none" xmlns="http://www.w3.org/2000/svg">
<path d="M30.4543 23.1866C31.2414 23.1866 31.7463 22.9198 31.7463 22.3861C31.7463 21.3765 29.3777 21.4126 29.3777 19.8549C29.3777 18.8957 30.3058 18.2539 31.7685 18.2539C32.3551 18.2539 32.9714 18.3837 33.4614 18.5856L33.0902 19.3356C32.6447 19.1626 32.1546 19.0616 31.7314 19.0616C31.0186 19.0616 30.5509 19.314 30.5509 19.7539C30.5509 20.6986 32.912 20.6698 32.912 22.2852C32.912 23.3236 31.9764 24.0015 30.3727 24.0015C29.6079 24.0015 28.8951 23.814 28.457 23.54L28.8877 22.7755C29.4223 23.0424 29.942 23.1866 30.4469 23.1866H30.4543Z" fill="#301C1B"/>
<path d="M42.379 18.3477H47.2052L46.975 19.1914H45.193L44.2204 23.9078H43.0175L43.9976 19.1914H42.1562L42.3864 18.3477H42.379Z" fill="#301C1B"/>
<path d="M56.2354 18.2969H57.4308L56.7774 21.4555C56.5547 22.5589 56.9704 23.0565 57.8614 23.0565C58.7524 23.0565 59.1831 22.5805 59.391 21.5421L60.0666 18.2969H61.262L60.6012 21.5204C60.2448 23.2152 59.4207 23.9507 57.8169 23.9507C56.1092 23.9507 55.2479 23.1142 55.5894 21.4555L56.2354 18.3041V18.2969Z" fill="#301C1B"/>
<path d="M70.1903 18.3621C70.7992 18.29 71.3857 18.2539 71.757 18.2539C73.6429 18.2539 75.1427 19.0472 75.1427 20.8573C75.1427 22.8044 73.3682 24.0015 70.8214 24.0015C70.324 24.0015 69.7671 23.9655 69.0469 23.8645L70.1903 18.3693V18.3621ZM71.0664 23.1433C72.9078 23.1433 73.8953 22.1481 73.8953 20.8573C73.8953 19.7323 73.1083 19.0977 71.8683 19.0977H71.2298L70.3982 23.1433H71.059H71.0664Z" fill="#301C1B"/>
<path d="M84.6328 23.9005L85.7837 18.3477H86.9791L85.8282 23.9005H84.6328Z" fill="#301C1B"/>
<path d="M96.3945 21.5562C96.3945 19.8759 97.7681 18.2461 99.8917 18.2461C101.622 18.2461 102.646 19.2701 102.639 20.6836C102.646 22.3639 101.265 23.9937 99.1417 23.9937C97.4192 23.9937 96.3945 22.9697 96.3945 21.5562ZM97.6419 21.4913C97.6419 22.5298 98.2656 23.1139 99.216 23.1139C100.493 23.1139 101.414 22.0105 101.414 20.7413C101.414 19.7028 100.775 19.1115 99.8471 19.1115C98.5552 19.1115 97.6493 20.2076 97.6493 21.4841L97.6419 21.4913Z" fill="#301C1B"/>
<path d="M35.4596 10.2626L34.383 15.5054H30.1211L33.2841 0.267428C34.7691 0.13762 36.7738 0.0078125 38.0286 0.0078125C42.8251 0.0078125 45.0377 1.7458 45.0377 4.53666C45.0377 7.50061 42.4167 10.2626 36.3654 10.2626H35.467H35.4596ZM37.0782 7.60157C39.3354 7.60157 40.6941 6.40445 40.6941 4.75301C40.6941 3.44772 39.8997 2.66166 38.0732 2.66166H37.0485L36.0239 7.60157H37.0782Z" fill="#301C1B"/>
<path d="M53.9621 12.0872H47.8514L45.7502 15.5054H41.4141L50.6803 1.24099L55.3209 0.0078125L58.9368 15.5054H54.6749L53.9547 12.0872H53.9621ZM53.4201 9.3684L52.4475 4.5583L49.4701 9.3684H53.4201Z" fill="#301C1B"/>
<path d="M66.6438 5.84195L64.6391 15.5054H60.793L64.008 0.0078125H67.1338L73.4004 10.3275L75.5314 0.0078125H79.3775L76.1699 15.5054H72.554L66.6512 5.84195H66.6438Z" fill="#301C1B"/>
<path d="M90.9309 15.5054H78.3828L78.8729 13.2626L88.2356 3.07993H81.1523L81.7686 0.0078125H93.938L93.4479 2.51022L84.1297 12.6929H91.7254L90.9309 15.4982V15.5054Z" fill="#301C1B"/>
<path d="M96.215 0.00721155H106.996L106.343 3.14423H99.8235L99.133 6.49039H105.214L104.65 9.21636H98.5687L97.8484 12.6274H104.375L103.781 15.4976H93L96.2076 0L96.215 0.00721155Z" fill="#301C1B"/>
<path d="M0 0.936624V3.04961C21.2649 2.24913 19.0077 10.5208 0 21.8357V23.9487C30.1748 5.90538 39.0327 -3.02973 0 0.936624Z" fill="#301C1B"/>
</svg>
