<svg width="18" height="12" viewBox="0 0 18 12" fill="none" xmlns="http://www.w3.org/2000/svg">
<path d="M17.8452 11.1529C15.4351 12.0167 12.8928 12.2406 10.2845 11.7288C10.2185 11.7288 10.1855 11.6968 10.1195 11.6648C9.98739 11.6328 9.85532 11.6328 9.72326 11.6008C7.3461 11.0249 5.23306 9.77728 2.75685 10.0972C1.79938 10.2252 0.907945 10.5771 0.148573 11.1529C-0.0495242 9.39338 -0.0495242 7.66584 0.148573 5.90631C0.148573 5.81034 0.148573 5.68237 0.148573 5.5864C0.280637 4.17877 0.544767 2.80314 0.247621 1.33153C0.247621 1.29954 0.247621 1.23556 0.247621 1.20357C0.214605 1.10759 0.181589 0.979625 0.148573 0.883651C1.4362 0.371788 2.82288 0.115856 4.24258 0.0198815C5.95942 -0.0760929 7.67626 0.179839 9.32707 0.691702C9.42612 0.723694 9.52516 0.787677 9.65723 0.819668C9.82231 0.85166 9.98739 0.915643 10.1525 0.947634C12.0674 1.61945 14.1144 2.32327 16.1284 1.71543C16.3925 1.61945 16.6236 1.52348 16.8878 1.42751C17.2179 1.26755 17.5151 1.0756 17.8452 0.883651C18.0103 2.35526 18.0433 3.79487 17.9443 5.26648C17.8122 6.77008 17.5811 8.2097 17.6141 9.7133C17.6471 10.1932 17.6802 10.673 17.8452 11.1529Z" fill="#174700"/>
<path d="M8.5 9.5C10.433 9.5 12 7.933 12 6C12 4.067 10.433 2.5 8.5 2.5C6.567 2.5 5 4.067 5 6C5 7.933 6.567 9.5 8.5 9.5Z" fill="#FF0000"/>
</svg>
