<svg width="36" height="36" viewBox="0 0 36 36" fill="none" xmlns="http://www.w3.org/2000/svg">
<rect width="36" height="36" fill="white"/>
<path d="M16.1699 20.0013C17.8268 20.0013 19.1699 18.6955 19.1699 17.0846C19.1699 15.4738 17.8268 14.168 16.1699 14.168H11.6699V20.0013M16.1699 20.0013C17.8268 20.0013 19.1699 21.3071 19.1699 22.918C19.1699 24.5288 17.8268 25.8346 16.1699 25.8346H11.6699V20.0013M16.1699 20.0013H11.6699" stroke="#301C1B" stroke-width="1.25"/>
<path d="M26.6699 15.832H23.3366M21.6699 21.6654H28.3366C28.3366 19.9643 26.8442 18.332 25.0033 18.332C23.1623 18.332 21.6699 19.9643 21.6699 21.6654ZM21.6699 21.6654V22.4987C21.6699 24.3396 23.1623 25.832 25.0033 25.832C26.2371 25.832 27.3143 25.1617 27.8907 24.1654" stroke="#301C1B" stroke-width="1.25" stroke-linejoin="round"/>
</svg>
