<svg width="76" height="72" viewBox="0 0 76 72" fill="none" xmlns="http://www.w3.org/2000/svg">
<path d="M70.8387 49.7488V22.2512C70.8387 19.2134 69.2081 16.4071 66.5614 14.8882L42.6002 1.13915C39.9535 -0.379718 36.6925 -0.379718 34.0453 1.13915L10.0836 14.8882C7.43692 16.4071 5.8064 19.2139 5.8064 22.2512V49.7488C5.8064 52.7866 7.43692 55.5929 10.0836 57.1118L34.0448 70.8608C36.6916 72.3797 39.9526 72.3797 42.5998 70.8608L66.561 57.1118C69.2081 55.5934 70.8387 52.7866 70.8387 49.7488Z" fill="#301C1B"/>
<path d="M38.3227 69.6771C37.2028 69.6771 36.0979 69.3829 35.1279 68.8265L11.3239 55.1635C9.35325 54.0327 8.12915 51.9245 8.12915 49.6628V22.3374C8.12915 20.0749 9.35325 17.9671 11.3239 16.8363L35.1279 3.17333C36.0979 2.61688 37.2028 2.32227 38.3227 2.32227C39.4426 2.32227 40.5475 2.61688 41.5175 3.17333L65.3215 16.8363C67.2921 17.9671 68.5162 20.0753 68.5162 22.3374V49.6628C68.5162 51.9249 67.2921 54.0327 65.3215 55.1635L41.5175 68.8265C40.5475 69.3829 39.4426 69.6771 38.3227 69.6771Z" fill="white"/>
<path d="M28.0436 21.7439C27.4444 21.7439 26.9044 21.6516 26.4236 21.467C25.9428 21.2788 25.5335 21.0141 25.1956 20.6726C24.8576 20.3277 24.5981 19.9201 24.4169 19.4498C24.2392 18.976 24.1504 18.4552 24.1504 17.8873C24.1504 17.1382 24.3019 16.4728 24.605 15.891C24.9116 15.3057 25.3454 14.8476 25.9063 14.5166C26.4672 14.1822 27.1343 14.015 27.9077 14.015C28.1481 14.015 28.385 14.0306 28.6185 14.062C28.8554 14.0933 29.0801 14.1369 29.2926 14.1926C29.5086 14.2484 29.7072 14.3111 29.8883 14.3808C30.073 14.447 30.235 14.5184 30.3743 14.595L30.2594 15.9642C29.9911 15.797 29.7298 15.6628 29.4755 15.5618C29.2212 15.4573 28.9756 15.3824 28.7387 15.3371C28.5052 15.2918 28.2788 15.2692 28.0593 15.2692C27.5994 15.2692 27.1883 15.3719 26.826 15.5775C26.4672 15.783 26.185 16.0809 25.9794 16.4711C25.7739 16.8613 25.6711 17.3333 25.6711 17.8873C25.6711 18.2461 25.7234 18.5858 25.8279 18.9063C25.9359 19.2233 26.0961 19.5038 26.3087 19.7477C26.5212 19.9915 26.7859 20.1832 27.103 20.3225C27.4235 20.4584 27.7963 20.5263 28.2213 20.5263C28.3885 20.5263 28.5575 20.5159 28.7282 20.495C28.8989 20.4706 29.0696 20.434 29.2403 20.3852C29.411 20.3364 29.58 20.2702 29.7472 20.1866C29.9145 20.103 30.0799 20.002 30.2437 19.8835L30.3325 21.237C30.1862 21.3241 30.0225 21.4008 29.8413 21.467C29.6601 21.5297 29.4703 21.5819 29.2717 21.6237C29.0766 21.6655 28.8745 21.6952 28.6655 21.7126C28.4565 21.7335 28.2492 21.7439 28.0436 21.7439ZM31.1644 21.6133C31.1644 21.237 31.1644 20.873 31.1644 20.5211C31.1644 20.1692 31.1644 19.7773 31.1644 19.3453V16.4554C31.1644 16.0269 31.1644 15.6053 31.1644 15.1908C31.1644 14.7727 31.1644 14.3616 31.1644 13.9575L32.4918 13.8321C32.4918 14.2466 32.4918 14.6699 32.4918 15.1019C32.4918 15.5304 32.4918 15.9816 32.4918 16.4554V19.3453C32.4918 19.7773 32.4918 20.1692 32.4918 20.5211C32.4918 20.873 32.4918 21.237 32.4918 21.6133H31.1644ZM35.0169 21.7439C34.4839 21.7439 34.085 21.5889 33.8202 21.2788C33.5589 20.9653 33.4282 20.5037 33.4282 19.894C33.4282 19.6641 33.4282 19.4637 33.4282 19.293C33.4282 19.1223 33.4282 18.9481 33.4282 18.7704C33.4282 18.436 33.4282 18.1381 33.4282 17.8768C33.4282 17.6155 33.4282 17.3682 33.4282 17.1348C33.4282 16.9013 33.4282 16.6592 33.4282 16.4084L34.7556 16.3666C34.7556 16.7393 34.7556 17.1086 34.7556 17.4744C34.7556 17.8368 34.7556 18.2165 34.7556 18.6137V19.5125C34.7556 19.8539 34.8131 20.1117 34.928 20.2859C35.0465 20.4601 35.2573 20.5472 35.5604 20.5472C35.7311 20.5472 35.8879 20.5124 36.0307 20.4427C36.177 20.3695 36.3094 20.2737 36.4279 20.1553C36.5463 20.0333 36.6543 19.8975 36.7519 19.7477V18.6137C36.7519 18.2165 36.7519 17.8437 36.7519 17.4953C36.7519 17.1435 36.7519 16.7812 36.7519 16.4084H38.0792C38.0792 16.7812 38.0792 17.1504 38.0792 17.5162C38.0792 17.8786 38.0792 18.2966 38.0792 18.7704V19.3453C38.0792 19.7773 38.0792 20.1692 38.0792 20.5211C38.0792 20.873 38.0792 21.237 38.0792 21.6133H36.9504L36.8982 20.751H36.778C36.663 20.9182 36.5219 21.0785 36.3547 21.2318C36.1875 21.3816 35.9924 21.5053 35.7694 21.6028C35.5464 21.6969 35.2956 21.7439 35.0169 21.7439ZM41.1771 21.7439C40.8044 21.7439 40.4873 21.6864 40.226 21.5715C39.9647 21.453 39.7644 21.2666 39.6251 21.0123C39.4857 20.758 39.416 20.427 39.416 20.0194C39.416 19.7651 39.416 19.509 39.416 19.2512C39.416 18.9934 39.416 18.7304 39.416 18.4621C39.416 18.1904 39.416 17.9134 39.416 17.6312C39.416 17.349 39.416 17.0564 39.416 16.7533C39.416 16.3735 39.416 16.0234 39.416 15.7029C39.416 15.3824 39.416 15.0549 39.416 14.7204L40.7277 14.4748C40.7277 14.7396 40.7277 14.9904 40.7277 15.2273C40.7277 15.4608 40.7277 15.6994 40.7277 15.9433C40.7277 16.1872 40.7277 16.4572 40.7277 16.7533V19.6222C40.7277 19.9602 40.7922 20.2162 40.9211 20.3904C41.0535 20.5612 41.2625 20.6465 41.5482 20.6465C41.6666 20.6465 41.7938 20.6256 41.9296 20.5838C42.069 20.542 42.1996 20.4775 42.3216 20.3904L42.4104 21.4826C42.3233 21.5384 42.2136 21.5854 42.0812 21.6237C41.9523 21.6621 41.8095 21.6917 41.6527 21.7126C41.4959 21.7335 41.3374 21.7439 41.1771 21.7439ZM38.5224 17.417V16.4084H42.3738V17.417C42.0394 17.417 41.7032 17.417 41.3653 17.417C41.0273 17.417 40.6998 17.417 40.3828 17.417H39.8027H38.5224ZM45.3482 21.723C44.7664 21.723 44.2717 21.6063 43.8641 21.3729C43.46 21.136 43.1516 20.8137 42.9391 20.4061C42.7301 19.9985 42.6256 19.5352 42.6256 19.0161C42.6256 18.4935 42.7249 18.0266 42.9234 17.6155C43.122 17.201 43.4147 16.8752 43.8014 16.6383C44.1916 16.3979 44.6741 16.2777 45.2489 16.2777C45.4545 16.2777 45.6583 16.2934 45.8604 16.3248C46.0624 16.3561 46.2523 16.4014 46.43 16.4606C46.6111 16.5164 46.7714 16.5826 46.9107 16.6592L46.8062 17.8193C46.6076 17.7079 46.4247 17.6225 46.2575 17.5633C46.0938 17.5041 45.9422 17.464 45.8029 17.4431C45.6635 17.4222 45.5381 17.4117 45.4266 17.4117C44.9876 17.4117 44.6358 17.5528 44.371 17.835C44.1097 18.1172 43.9791 18.4987 43.9791 18.9795C43.9791 19.2965 44.0418 19.5787 44.1672 19.8261C44.2926 20.0699 44.4773 20.2633 44.7211 20.4061C44.9685 20.5455 45.2751 20.6152 45.6409 20.6152C45.7767 20.6152 45.9126 20.603 46.0485 20.5786C46.1844 20.5542 46.3185 20.5176 46.4509 20.4688C46.5833 20.4166 46.7104 20.3504 46.8324 20.2702L46.9107 21.4304C46.7923 21.4861 46.6547 21.5366 46.4979 21.5819C46.3446 21.6237 46.1722 21.6568 45.9805 21.6812C45.7889 21.7091 45.5782 21.723 45.3482 21.723ZM47.6192 21.6133C47.6192 21.237 47.6192 20.873 47.6192 20.5211C47.6192 20.1692 47.6192 19.7773 47.6192 19.3453V16.4554C47.6192 16.0269 47.6192 15.6053 47.6192 15.1908C47.6192 14.7762 47.6192 14.3651 47.6192 13.9575L48.9465 13.8321C48.9465 14.2432 48.9465 14.6647 48.9465 15.0967C48.9465 15.5287 48.9465 15.9816 48.9465 16.4554V17.1818H49.0667C49.1712 17.032 49.3001 16.8874 49.4534 16.7481C49.6102 16.6087 49.7914 16.4955 49.9969 16.4084C50.2059 16.3178 50.4428 16.2725 50.7076 16.2725C51.2406 16.2725 51.6378 16.4293 51.8991 16.7428C52.1639 17.0529 52.2963 17.5128 52.2963 18.1224C52.2963 18.3489 52.2963 18.5579 52.2963 18.7495C52.2963 18.9377 52.2963 19.1362 52.2963 19.3453C52.2963 19.7668 52.2963 20.157 52.2963 20.5159C52.2963 20.8712 52.2963 21.237 52.2963 21.6133H50.9689C50.9689 21.237 50.9689 20.873 50.9689 20.5211C50.9689 20.1692 50.9689 19.7999 50.9689 19.4132V18.5301C50.9689 18.1886 50.9097 17.9308 50.7912 17.7566C50.6763 17.5824 50.4672 17.4953 50.1641 17.4953C49.9865 17.4953 49.8227 17.5319 49.6729 17.6051C49.5266 17.6748 49.3925 17.7706 49.2705 17.8925C49.1521 18.011 49.0441 18.1451 48.9465 18.2949V19.4132C48.9465 19.8104 48.9465 20.1832 48.9465 20.5315C48.9465 20.8764 48.9465 21.237 48.9465 21.6133H47.6192Z" fill="#301C1B"/>
<path d="M27.3972 58.1934V57.5802C28.0661 57.0476 28.6483 56.5583 29.1438 56.1123C29.6455 55.6664 30.0326 55.2359 30.3051 54.821C30.5776 54.406 30.7138 53.9817 30.7138 53.5482C30.7138 53.158 30.6024 52.8514 30.3794 52.6285C30.1626 52.3993 29.8684 52.2847 29.4968 52.2847C29.2119 52.2847 28.9704 52.3466 28.7722 52.4705C28.574 52.5944 28.4253 52.7585 28.3262 52.9629C28.2271 53.1673 28.1776 53.3872 28.1776 53.6225H27.4065C27.4127 53.1952 27.5056 52.8297 27.6852 52.5263C27.871 52.2166 28.1187 51.9812 28.4284 51.8202C28.7443 51.6592 29.1004 51.5786 29.4968 51.5786C30.1347 51.5786 30.6302 51.7552 30.9833 52.1082C31.3363 52.4612 31.5128 52.935 31.5128 53.5296C31.5128 53.9198 31.4292 54.2945 31.262 54.6537C31.0947 55.0068 30.8718 55.3474 30.5931 55.6757C30.3144 56.0039 30.0016 56.3198 29.6547 56.6233C29.3079 56.9268 28.958 57.2179 28.6049 57.4966H31.6893V58.1934H27.3972ZM34.6958 58.3048C34.2065 58.3048 33.7729 58.1686 33.3951 57.8961C33.0235 57.6236 32.7324 57.2365 32.5218 56.7348C32.3174 56.2331 32.2152 55.6354 32.2152 54.9417C32.2152 54.2481 32.3174 53.6504 32.5218 53.1487C32.7324 52.647 33.0235 52.2599 33.3951 51.9874C33.7729 51.7149 34.2065 51.5786 34.6958 51.5786C35.1912 51.5786 35.6248 51.7149 35.9964 51.9874C36.368 52.2599 36.656 52.647 36.8604 53.1487C37.071 53.6504 37.1763 54.2481 37.1763 54.9417C37.1763 55.6354 37.071 56.2331 36.8604 56.7348C36.656 57.2365 36.368 57.6236 35.9964 57.8961C35.6248 58.1686 35.1912 58.3048 34.6958 58.3048ZM33.0142 54.9417C33.0142 55.3629 33.0576 55.7438 33.1443 56.0845C33.2372 56.4189 33.3642 56.7007 33.5252 56.9299L35.3275 52.4612C35.1355 52.3559 34.9249 52.3033 34.6958 52.3033C34.3675 52.3033 34.0764 52.4117 33.8225 52.6285C33.5685 52.839 33.3703 53.1425 33.2279 53.5389C33.0854 53.9291 33.0142 54.3967 33.0142 54.9417ZM34.6958 57.5895C35.024 57.5895 35.3151 57.4842 35.5691 57.2736C35.823 57.0568 36.0212 56.7503 36.1636 56.3539C36.3061 55.9575 36.3773 55.4868 36.3773 54.9417C36.3773 54.5206 36.3309 54.1428 36.238 53.8083C36.1512 53.4677 36.0274 53.1828 35.8663 52.9536L34.0547 57.4316C34.2529 57.5368 34.4666 57.5895 34.6958 57.5895ZM37.7951 58.1934V57.5802C38.464 57.0476 39.0462 56.5583 39.5417 56.1123C40.0434 55.6664 40.4305 55.2359 40.703 54.821C40.9755 54.406 41.1117 53.9817 41.1117 53.5482C41.1117 53.158 41.0003 52.8514 40.7773 52.6285C40.5605 52.3993 40.2663 52.2847 39.8947 52.2847C39.6098 52.2847 39.3683 52.3466 39.1701 52.4705C38.9719 52.5944 38.8232 52.7585 38.7241 52.9629C38.625 53.1673 38.5755 53.3872 38.5755 53.6225H37.8044C37.8106 53.1952 37.9035 52.8297 38.0831 52.5263C38.2689 52.2166 38.5167 51.9812 38.8263 51.8202C39.1422 51.6592 39.4983 51.5786 39.8947 51.5786C40.5327 51.5786 41.0281 51.7552 41.3812 52.1082C41.7342 52.4612 41.9107 52.935 41.9107 53.5296C41.9107 53.9198 41.8271 54.2945 41.6599 54.6537C41.4927 55.0068 41.2697 55.3474 40.991 55.6757C40.7123 56.0039 40.3995 56.3198 40.0527 56.6233C39.7058 56.9268 39.3559 57.2179 39.0028 57.4966H42.0872V58.1934H37.7951ZM45.0937 58.3048C44.6477 58.3048 44.2637 58.2212 43.9417 58.054C43.6196 57.8868 43.3657 57.6607 43.1799 57.3758C42.9941 57.0909 42.8826 56.7657 42.8454 56.4003H43.6444C43.7001 56.7534 43.8581 57.0414 44.1182 57.2643C44.3783 57.4811 44.7066 57.5895 45.103 57.5895C45.5675 57.5895 45.9329 57.4408 46.1992 57.1436C46.4655 56.8401 46.5987 56.4592 46.5987 56.0008C46.5987 55.5177 46.4624 55.1399 46.1899 54.8674C45.9174 54.5887 45.5644 54.4494 45.1308 54.4494C44.784 54.4494 44.4867 54.5299 44.239 54.6909C43.9974 54.8457 43.8023 55.0439 43.6537 55.2855H42.9104L43.4679 51.6901H46.9424V52.4055H44.081L43.7373 54.3379H43.7837C43.9262 54.183 44.1182 54.0468 44.3597 53.9291C44.6075 53.8114 44.8924 53.7526 45.2144 53.7526C45.6418 53.7526 46.0134 53.8455 46.3293 54.0313C46.6513 54.2109 46.9022 54.471 47.0818 54.8117C47.2614 55.1461 47.3512 55.5394 47.3512 55.9916C47.3512 56.4127 47.2614 56.7998 47.0818 57.1528C46.9084 57.4997 46.6513 57.7784 46.3107 57.989C45.9762 58.1996 45.5706 58.3048 45.0937 58.3048Z" fill="#301C1B"/>
<path d="M75.4839 27.8711H0L4.32711 37.1612L0 46.4517H75.4839L71.1568 37.1612L75.4839 27.8711Z" fill="#301C1B"/>
<path d="M22.5754 35.1714L22.0647 33.4234C22.7169 33.1015 23.369 32.7822 24.0212 32.4652C24.6733 32.1434 25.3255 31.8216 25.9777 31.4998L25.8985 33.5111C25.3423 33.7891 24.7884 34.067 24.237 34.3449C23.6855 34.618 23.1317 34.8935 22.5754 35.1714ZM24.834 41.6223C24.834 41.1006 24.834 40.5959 24.834 40.1083C24.834 39.6158 24.834 39.0673 24.834 38.4627V35.5078C24.834 35.0056 24.834 34.5058 24.834 34.0085C24.834 33.5063 24.834 33.0016 24.834 32.4945L25.9777 31.4998L27.0494 31.5656C27.0494 32.1361 27.0494 32.7139 27.0494 33.299C27.0494 33.8793 27.0494 34.4693 27.0494 35.069V38.4627C27.0494 39.0673 27.0494 39.6158 27.0494 40.1083C27.0494 40.5959 27.0494 41.1006 27.0494 41.6223H24.834Z" fill="white"/>
<path d="M32.5038 41.8051C31.7558 41.8051 31.1132 41.6735 30.5761 41.4102C30.0438 41.142 29.6099 40.7714 29.2742 40.2985C28.9433 39.8255 28.6987 39.2721 28.5405 38.6382C28.387 38.0043 28.3103 37.3217 28.3103 36.5903C28.3103 35.5615 28.4566 34.6545 28.7491 33.8695C29.0416 33.0796 29.4924 32.4628 30.1014 32.0191C30.7152 31.5754 31.4992 31.3535 32.4535 31.3535C33.1776 31.3535 33.801 31.4827 34.3236 31.7412C34.8463 31.9947 35.2779 32.3555 35.6184 32.8236C35.9588 33.2868 36.2106 33.8378 36.3736 34.4766C36.5415 35.1153 36.6254 35.8175 36.6254 36.583C36.6254 37.6313 36.4743 38.548 36.1722 39.333C35.8701 40.118 35.4146 40.7275 34.8056 41.1615C34.1966 41.5906 33.4293 41.8051 32.5038 41.8051ZM32.4751 39.9328C32.9306 39.9328 33.2927 39.7889 33.5612 39.5012C33.8345 39.2087 34.0335 38.8113 34.1582 38.3091C34.2829 37.802 34.3452 37.2266 34.3452 36.583C34.3452 35.9052 34.2781 35.3177 34.1438 34.8203C34.0143 34.3181 33.8105 33.928 33.5324 33.6501C33.2591 33.3722 32.9066 33.2332 32.4751 33.2332C32.0339 33.2332 31.6742 33.3746 31.3961 33.6574C31.1228 33.9402 30.9214 34.3327 30.7919 34.8349C30.6624 35.3372 30.5977 35.9198 30.5977 36.583C30.5977 37.2364 30.6576 37.8142 30.7775 38.3164C30.9022 38.8186 31.1012 39.2136 31.3745 39.5012C31.6527 39.7889 32.0195 39.9328 32.4751 39.9328Z" fill="white"/>
<path d="M41.4815 41.8051C40.7335 41.8051 40.0909 41.6735 39.5538 41.4102C39.0215 41.142 38.5876 40.7714 38.2519 40.2985C37.921 39.8255 37.6765 39.2721 37.5182 38.6382C37.3648 38.0043 37.288 37.3217 37.288 36.5903C37.288 35.5615 37.4343 34.6545 37.7268 33.8695C38.0193 33.0796 38.4701 32.4628 39.0791 32.0191C39.6929 31.5754 40.4769 31.3535 41.4312 31.3535C42.1553 31.3535 42.7787 31.4827 43.3014 31.7412C43.824 31.9947 44.2556 32.3555 44.5961 32.8236C44.9366 33.2868 45.1883 33.8378 45.3514 34.4766C45.5192 35.1153 45.6031 35.8175 45.6031 36.583C45.6031 37.6313 45.4521 38.548 45.15 39.333C44.8478 40.118 44.3923 40.7275 43.7833 41.1615C43.1743 41.5906 42.407 41.8051 41.4815 41.8051ZM41.4528 39.9328C41.9083 39.9328 42.2704 39.7889 42.5389 39.5012C42.8122 39.2087 43.0112 38.8113 43.1359 38.3091C43.2606 37.802 43.3229 37.2266 43.3229 36.583C43.3229 35.9052 43.2558 35.3177 43.1215 34.8203C42.9921 34.3181 42.7883 33.928 42.5101 33.6501C42.2368 33.3722 41.8843 33.2332 41.4528 33.2332C41.0116 33.2332 40.652 33.3746 40.3738 33.6574C40.1005 33.9402 39.8991 34.3327 39.7696 34.8349C39.6401 35.3372 39.5754 35.9198 39.5754 36.583C39.5754 37.2364 39.6353 37.8142 39.7552 38.3164C39.8799 38.8186 40.0789 39.2136 40.3522 39.5012C40.6304 39.7889 40.9972 39.9328 41.4528 39.9328Z" fill="white"/>
<path d="M50.4593 41.8051C49.7112 41.8051 49.0686 41.6735 48.5315 41.4102C47.9993 41.142 47.5653 40.7714 47.2296 40.2985C46.8987 39.8255 46.6542 39.2721 46.4959 38.6382C46.3425 38.0043 46.2658 37.3217 46.2658 36.5903C46.2658 35.5615 46.412 34.6545 46.7045 33.8695C46.997 33.0796 47.4478 32.4628 48.0568 32.0191C48.6706 31.5754 49.4546 31.3535 50.4089 31.3535C51.133 31.3535 51.7564 31.4827 52.2791 31.7412C52.8018 31.9947 53.2333 32.3555 53.5738 32.8236C53.9143 33.2868 54.166 33.8378 54.3291 34.4766C54.4969 35.1153 54.5808 35.8175 54.5808 36.583C54.5808 37.6313 54.4298 38.548 54.1277 39.333C53.8256 40.118 53.37 40.7275 52.761 41.1615C52.152 41.5906 51.3848 41.8051 50.4593 41.8051ZM50.4305 39.9328C50.886 39.9328 51.2481 39.7889 51.5166 39.5012C51.79 39.2087 51.989 38.8113 52.1136 38.3091C52.2383 37.802 52.3007 37.2266 52.3007 36.583C52.3007 35.9052 52.2335 35.3177 52.0993 34.8203C51.9698 34.3181 51.766 33.928 51.4879 33.6501C51.2145 33.3722 50.8621 33.2332 50.4305 33.2332C49.9893 33.2332 49.6297 33.3746 49.3515 33.6574C49.0782 33.9402 48.8768 34.3327 48.7473 34.8349C48.6179 35.3372 48.5531 35.9198 48.5531 36.583C48.5531 37.2364 48.6131 37.8142 48.7329 38.3164C48.8576 38.8186 49.0566 39.2136 49.33 39.5012C49.6081 39.7889 49.9749 39.9328 50.4305 39.9328Z" fill="white"/>
</svg>
