<svg width="40" height="40" viewBox="0 0 40 40" fill="none" xmlns="http://www.w3.org/2000/svg">
<rect x="0.5" y="0.5" width="39" height="39" fill="white"/>
<rect x="0.5" y="0.5" width="39" height="39" stroke="#D7D4D3"/>
<g clip-path="url(#clip0_10701_532)">
<path d="M13.92 23.3L17.86 21.1L17.92 20.9L17.86 20.8H17.66L17 20.76L14.76 20.7L12.8 20.6L10.9 20.5L10.42 20.4L10 19.8L10.04 19.5L10.44 19.24L11.02 19.28L12.28 19.38L14.18 19.5L15.56 19.58L17.6 19.82H17.92L17.96 19.68L17.86 19.6L17.78 19.52L15.8 18.2L13.68 16.8L12.56 15.98L11.96 15.58L11.66 15.18L11.54 14.34L12.08 13.74L12.82 13.8L13 13.84L13.74 14.42L15.34 15.64L17.4 17.2L17.7 17.44L17.82 17.36L17.84 17.3L17.7 17.08L16.6 15L15.4 12.92L14.86 12.06L14.72 11.54C14.66 11.34 14.64 11.14 14.64 10.94L15.24 10.1L15.6 10L16.44 10.12L16.76 10.4L17.28 11.6L18.1 13.46L19.4 15.98L19.8 16.74L20 17.42L20.06 17.62H20.2V17.52L20.3 16.08L20.5 14.34L20.7 12.1L20.76 11.46L21.08 10.7L21.68 10.3L22.2 10.52L22.6 11.1L22.54 11.46L22.32 13L21.8 15.42L21.5 17.06H21.68L21.88 16.84L22.7 15.76L24.08 14.04L24.68 13.34L25.4 12.6L25.86 12.24H26.72L27.34 13.18L27.06 14.16L26.18 15.28L25.44 16.22L24.38 17.64L23.74 18.78L23.8 18.86H23.94L26.34 18.34L27.62 18.12L29.14 17.86L29.84 18.18L29.92 18.5L29.64 19.18L28 19.58L26.08 19.98L23.22 20.64L23.18 20.66L23.22 20.72L24.5 20.84L25.06 20.88H26.42L28.94 21.08L29.6 21.48L29.98 22.02L29.92 22.42L28.9 22.94L27.54 22.62L24.34 21.86L23.26 21.6H23.1V21.68L24.02 22.58L25.68 24.08L27.8 26.02L27.9 26.5L27.64 26.9L27.36 26.86L25.52 25.46L24.8 24.86L23.2 23.5H23.1V23.64L23.46 24.18L25.42 27.12L25.52 28.02L25.38 28.3L24.86 28.5L24.32 28.38L23.16 26.78L21.96 24.98L21.02 23.34L20.92 23.42L20.34 29.46L20.08 29.76L19.48 30L18.98 29.6L18.7 29L18.98 27.76L19.3 26.16L19.56 24.88L19.8 23.3L19.94 22.78V22.74H19.8L18.6 24.4L16.8 26.86L15.36 28.38L15.02 28.52L14.42 28.22L14.48 27.66L14.8 27.2L16.8 24.64L18 23.06L18.8 22.14L18.78 22.04H18.72L13.44 25.48L12.5 25.6L12.1 25.2L12.14 24.6L12.34 24.4L13.94 23.3H13.92Z" fill="#301C1B"/>
</g>
<defs>
<clipPath id="clip0_10701_532">
<rect width="20" height="20" fill="white" transform="translate(10 10)"/>
</clipPath>
</defs>
</svg>
