<svg width="36" height="36" viewBox="0 0 36 36" fill="none" xmlns="http://www.w3.org/2000/svg">
<rect width="36" height="36" fill="white"/>
<path d="M20.0033 28.3346C24.6056 28.3346 28.3366 24.6037 28.3366 20.0013C28.3366 15.3989 24.6056 11.668 20.0033 11.668C15.4009 11.668 11.6699 15.3989 11.6699 20.0013C11.6699 24.6037 15.4009 28.3346 20.0033 28.3346Z" stroke="#301C1B" stroke-width="1.25"/>
<path d="M28.3333 21.0524C27.561 20.9075 26.7667 20.832 25.956 20.832C21.4957 20.832 17.5286 23.1174 15 26.6654" stroke="#301C1B" stroke-width="1.25" stroke-linejoin="round"/>
<path d="M25.8366 14.168C23.2287 17.2242 19.3098 19.168 14.9279 19.168C13.8069 19.168 12.7162 19.0407 11.6699 18.8002" stroke="#301C1B" stroke-width="1.25" stroke-linejoin="round"/>
<path d="M22.1782 28.3333C22.3871 27.3217 22.4967 26.2739 22.4967 25.2006C22.4967 19.9373 19.8587 15.2887 15.8301 12.5" stroke="#301C1B" stroke-width="1.25" stroke-linejoin="round"/>
</svg>
