<svg width="86" height="70" viewBox="0 0 86 70" fill="none" xmlns="http://www.w3.org/2000/svg">
<path d="M17.8702 55.5283L39.2642 68.595C41.6277 70.0382 44.5392 70.0382 46.9023 68.595L68.2963 55.5283C70.6593 54.0851 72.1153 51.4173 72.1153 48.5304V38.8804V22.3974V6.46353C72.1153 2.89408 69.38 0 66.0054 0H20.1607C16.7865 0 14.0508 2.89364 14.0508 6.46353V22.3969V38.88V48.5299C14.0512 51.4173 15.5067 54.0846 17.8702 55.5283Z" fill="#301C1B"/>
<path d="M43.0828 67.3555C42.0917 67.3555 41.1145 67.0866 40.2568 66.578L19.1993 54.0993C17.4562 53.0663 16.3733 51.1413 16.3733 49.0752V6.58059C16.3733 4.23278 18.2342 2.32324 20.5212 2.32324H65.6447C67.9318 2.32324 69.7926 4.23321 69.7926 6.58059V49.0757C69.7926 51.1417 68.7097 53.0667 66.9667 54.0997L45.9092 66.5785C45.051 67.0866 44.0734 67.3555 43.0828 67.3555Z" fill="white"/>
<path d="M33.4358 54.1289V53.5157C34.1047 52.9831 34.6869 52.4938 35.1824 52.0479C35.684 51.6019 36.0711 51.1715 36.3436 50.7565C36.6162 50.3416 36.7524 49.9173 36.7524 49.4837C36.7524 49.0936 36.6409 48.787 36.418 48.564C36.2012 48.3348 35.907 48.2203 35.5354 48.2203C35.2505 48.2203 35.0089 48.2822 34.8107 48.4061C34.6125 48.5299 34.4639 48.6941 34.3648 48.8985C34.2657 49.1028 34.2162 49.3227 34.2162 49.5581H33.4451C33.4513 49.1307 33.5442 48.7653 33.7238 48.4618C33.9096 48.1521 34.1573 47.9168 34.467 47.7557C34.7829 47.5947 35.139 47.5142 35.5354 47.5142C36.1733 47.5142 36.6688 47.6907 37.0218 48.0437C37.3749 48.3968 37.5514 48.8706 37.5514 49.4652C37.5514 49.8554 37.4678 50.2301 37.3005 50.5893C37.1333 50.9423 36.9104 51.283 36.6316 51.6112C36.3529 51.9395 36.0402 52.2554 35.6933 52.5588C35.3465 52.8623 34.9965 53.1534 34.6435 53.4321H37.7279V54.1289H33.4358ZM40.7343 54.2404C40.245 54.2404 39.8115 54.1041 39.4337 53.8316C39.0621 53.5591 38.771 53.172 38.5604 52.6703C38.356 52.1686 38.2538 51.571 38.2538 50.8773C38.2538 50.1836 38.356 49.5859 38.5604 49.0843C38.771 48.5826 39.0621 48.1955 39.4337 47.923C39.8115 47.6505 40.245 47.5142 40.7343 47.5142C41.2298 47.5142 41.6634 47.6505 42.035 47.923C42.4066 48.1955 42.6946 48.5826 42.899 49.0843C43.1096 49.5859 43.2149 50.1836 43.2149 50.8773C43.2149 51.571 43.1096 52.1686 42.899 52.6703C42.6946 53.172 42.4066 53.5591 42.035 53.8316C41.6634 54.1041 41.2298 54.2404 40.7343 54.2404ZM39.0528 50.8773C39.0528 51.2985 39.0961 51.6794 39.1829 52.02C39.2758 52.3545 39.4027 52.6363 39.5638 52.8654L41.3661 48.3968C41.1741 48.2915 40.9635 48.2388 40.7343 48.2388C40.4061 48.2388 40.115 48.3472 39.861 48.564C39.6071 48.7746 39.4089 49.0781 39.2665 49.4745C39.124 49.8646 39.0528 50.3323 39.0528 50.8773ZM40.7343 53.525C41.0626 53.525 41.3537 53.4197 41.6076 53.2092C41.8616 52.9924 42.0598 52.6858 42.2022 52.2894C42.3447 51.893 42.4159 51.4223 42.4159 50.8773C42.4159 50.4561 42.3694 50.0783 42.2765 49.7439C42.1898 49.4032 42.066 49.1183 41.9049 48.8892L40.0933 53.3671C40.2915 53.4724 40.5052 53.525 40.7343 53.525ZM43.8337 54.1289V53.5157C44.5026 52.9831 45.0848 52.4938 45.5803 52.0479C46.0819 51.6019 46.469 51.1715 46.7415 50.7565C47.0141 50.3416 47.1503 49.9173 47.1503 49.4837C47.1503 49.0936 47.0388 48.787 46.8159 48.564C46.5991 48.3348 46.3049 48.2203 45.9333 48.2203C45.6484 48.2203 45.4068 48.2822 45.2086 48.4061C45.0105 48.5299 44.8618 48.6941 44.7627 48.8985C44.6636 49.1028 44.6141 49.3227 44.6141 49.5581H43.843C43.8492 49.1307 43.9421 48.7653 44.1217 48.4618C44.3075 48.1521 44.5552 47.9168 44.8649 47.7557C45.1808 47.5947 45.5369 47.5142 45.9333 47.5142C46.5712 47.5142 47.0667 47.6907 47.4197 48.0437C47.7728 48.3968 47.9493 48.8706 47.9493 49.4652C47.9493 49.8554 47.8657 50.2301 47.6985 50.5893C47.5312 50.9423 47.3083 51.283 47.0295 51.6112C46.7508 51.9395 46.4381 52.2554 46.0912 52.5588C45.7444 52.8623 45.3945 53.1534 45.0414 53.4321H48.1258V54.1289H43.8337ZM51.2623 54.2404C50.6925 54.2404 50.228 54.1041 49.8688 53.8316C49.5157 53.5529 49.2525 53.1813 49.0791 52.7168C48.9119 52.2461 48.8282 51.7165 48.8282 51.1281C48.8282 50.4159 48.9273 49.7903 49.1255 49.2515C49.3237 48.7065 49.6086 48.2822 49.9802 47.9787C50.358 47.669 50.8102 47.5142 51.3366 47.5142C51.7516 47.5142 52.1046 47.5947 52.3957 47.7557C52.693 47.9106 52.9253 48.1243 53.0925 48.3968C53.2659 48.6631 53.3681 48.9635 53.3991 49.2979H52.6651C52.6032 48.9697 52.4546 48.7096 52.2192 48.5176C51.9839 48.3194 51.6897 48.2203 51.3366 48.2203C51.027 48.2203 50.742 48.3194 50.4819 48.5176C50.228 48.7096 50.0174 49.0099 49.8502 49.4187C49.6891 49.8213 49.5962 50.3354 49.5715 50.9609H49.6179C49.7604 50.6946 49.9802 50.4623 50.2775 50.2641C50.5748 50.0659 50.934 49.9668 51.3552 49.9668C51.7454 49.9668 52.0953 50.0566 52.405 50.2363C52.7147 50.4159 52.9593 50.6636 53.139 50.9795C53.3248 51.2954 53.4177 51.6546 53.4177 52.0572C53.4177 52.4536 53.3279 52.819 53.1482 53.1534C52.9748 53.4817 52.724 53.7449 52.3957 53.9431C52.0737 54.1413 51.6959 54.2404 51.2623 54.2404ZM51.2066 53.5343C51.6339 53.5343 51.9777 53.3981 52.2378 53.1256C52.4979 52.853 52.628 52.5124 52.628 52.1036C52.628 51.6886 52.4979 51.348 52.2378 51.0817C51.9777 50.8092 51.6339 50.6729 51.2066 50.6729C50.9217 50.6729 50.6708 50.7348 50.454 50.8587C50.2435 50.9826 50.0762 51.1529 49.9524 51.3697C49.8347 51.5865 49.7759 51.8311 49.7759 52.1036C49.7759 52.3761 49.8347 52.6208 49.9524 52.8376C50.0762 53.0543 50.2435 53.2246 50.454 53.3485C50.6708 53.4724 50.9217 53.5343 51.2066 53.5343Z" fill="#301C1B"/>
<path d="M28.3771 17.1289C28.5072 16.7728 28.6419 16.3981 28.7812 16.0048C28.9237 15.6115 29.0599 15.2383 29.19 14.8853L30.0122 12.6092C30.1577 12.2004 30.2909 11.8319 30.4117 11.5036C30.5324 11.1723 30.6532 10.8394 30.774 10.5049H31.8795C32.0003 10.8456 32.1195 11.18 32.2372 11.5083C32.3549 11.8365 32.4865 12.205 32.6321 12.6138L33.4496 14.8946C33.5797 15.26 33.7128 15.6363 33.8491 16.0234C33.9884 16.4074 34.1216 16.7759 34.2486 17.1289H33.3753C33.2421 16.7418 33.1043 16.3439 32.9619 15.9351C32.8225 15.5232 32.6909 15.1361 32.567 14.7738L31.3593 11.2621H31.2803L30.0633 14.7413C29.9301 15.1191 29.7923 15.5155 29.6499 15.9305C29.5074 16.3423 29.3665 16.7418 29.2272 17.1289H28.3771ZM29.6034 15.4659L29.6777 14.8063H33.0315L33.0919 15.4659H29.6034ZM35.5473 17.1289C35.4544 16.8378 35.36 16.5483 35.264 16.2603C35.168 15.9692 35.0704 15.6734 34.9713 15.373L34.7066 14.5555C34.5951 14.2148 34.4836 13.8773 34.3721 13.5428C34.2637 13.2053 34.1538 12.8646 34.0423 12.5209L34.8506 12.4884C34.9651 12.8662 35.0844 13.2641 35.2082 13.6822C35.3352 14.0972 35.456 14.4966 35.5706 14.8806L35.9979 16.3067H36.0722L36.4903 14.8481C36.6018 14.461 36.7133 14.0755 36.8248 13.6915C36.9362 13.3044 37.0493 12.9142 37.1638 12.5209H37.9071C38.0186 12.8956 38.1316 13.2796 38.2462 13.6729C38.3608 14.0631 38.4738 14.4486 38.5853 14.8296L39.0173 16.3067H39.0916L39.5282 14.811C39.6366 14.4363 39.7497 14.0461 39.8673 13.6404C39.9881 13.2316 40.098 12.8585 40.1971 12.5209H41.0147C40.9063 12.8585 40.7964 13.1976 40.6849 13.5382C40.5765 13.8788 40.4681 14.2179 40.3597 14.5555L40.0996 15.3637C40.0005 15.6641 39.9029 15.963 39.8069 16.2603C39.7109 16.5545 39.6165 16.844 39.5236 17.1289H38.6178C38.5094 16.7728 38.3979 16.4043 38.2833 16.0234C38.1688 15.6394 38.0573 15.2755 37.9489 14.9317L37.5448 13.5893H37.4658L37.0663 14.9457C36.9641 15.2894 36.8573 15.6502 36.7458 16.028C36.6343 16.4058 36.5244 16.7728 36.416 17.1289H35.5473ZM42.6639 17.2218C42.3883 17.2218 42.1467 17.1692 41.9392 17.0639C41.7317 16.9555 41.5692 16.8022 41.4515 16.604C41.3369 16.4058 41.2796 16.1674 41.2796 15.8886C41.2796 15.6378 41.3245 15.4272 41.4143 15.2569C41.5041 15.0835 41.6218 14.9426 41.7674 14.8342C41.9129 14.7258 42.0739 14.6422 42.2504 14.5834C42.427 14.5214 42.6035 14.475 42.78 14.444L44.2246 14.1932C44.237 13.8804 44.1952 13.645 44.0992 13.4871C44.0063 13.3261 43.8747 13.2177 43.7044 13.1619C43.5341 13.1062 43.3452 13.0783 43.1377 13.0783C43.0324 13.0783 42.9194 13.0861 42.7986 13.1016C42.6778 13.117 42.5493 13.1418 42.413 13.1759C42.2799 13.2068 42.139 13.2471 41.9903 13.2966C41.8417 13.3462 41.6853 13.4066 41.5212 13.4778L41.4793 12.7764C41.5908 12.7299 41.7163 12.685 41.8556 12.6417C41.9981 12.5983 42.1483 12.5596 42.3062 12.5256C42.4672 12.4884 42.6314 12.4605 42.7986 12.4419C42.9658 12.4234 43.1346 12.4141 43.3049 12.4141C43.6486 12.4141 43.9444 12.4683 44.1921 12.5766C44.443 12.685 44.635 12.8554 44.7681 13.0876C44.9013 13.3199 44.9679 13.6234 44.9679 13.9981C44.9679 14.1405 44.9679 14.3217 44.9679 14.5416C44.9679 14.7614 44.9679 14.9705 44.9679 15.1686V15.7679C44.9679 15.9785 44.9679 16.1937 44.9679 16.4136C44.9679 16.6303 44.9679 16.8688 44.9679 17.1289H44.2711L44.2293 16.4739H44.155C44.059 16.5978 43.9382 16.717 43.7926 16.8316C43.6471 16.9462 43.4783 17.0406 43.2863 17.115C43.0974 17.1862 42.8899 17.2218 42.6639 17.2218ZM42.8868 16.5854C43.051 16.5854 43.2151 16.5514 43.3792 16.4832C43.5433 16.4151 43.6966 16.3145 43.8391 16.1813C43.9846 16.045 44.107 15.8747 44.2061 15.6703L44.2107 14.6763C44.1612 14.7041 44.0946 14.732 44.011 14.7599C43.9304 14.7877 43.8081 14.8203 43.644 14.8574C43.483 14.8915 43.2584 14.9348 42.9704 14.9875C42.7939 15.0185 42.6375 15.0696 42.5013 15.1408C42.365 15.2089 42.2566 15.3034 42.1761 15.4241C42.0987 15.5418 42.06 15.6858 42.06 15.8561C42.06 16.1225 42.139 16.3114 42.2969 16.4228C42.4579 16.5312 42.6546 16.5854 42.8868 16.5854ZM46.0775 17.1289C46.0775 16.7852 46.0775 16.4554 46.0775 16.1395C46.0775 15.8236 46.0775 15.4752 46.0775 15.0943V14.6298C46.0775 14.2892 46.0775 13.9408 46.0775 13.5846C46.0775 13.2285 46.0775 12.8739 46.0775 12.5209L46.7464 12.4745L46.7696 13.4128H46.8486C46.9755 13.131 47.1211 12.9188 47.2852 12.7764C47.4524 12.6308 47.6212 12.5333 47.7915 12.4837C47.9619 12.4342 48.1183 12.4094 48.2607 12.4094C48.3474 12.4094 48.4341 12.4156 48.5208 12.428C48.6075 12.4404 48.6896 12.4605 48.767 12.4884L48.6973 13.2595C48.5952 13.2409 48.5023 13.2254 48.4186 13.213C48.3381 13.2006 48.2437 13.1945 48.1353 13.1945C48.0455 13.1945 47.9433 13.2084 47.8287 13.2363C47.7172 13.261 47.6011 13.3152 47.4803 13.3988C47.3626 13.4794 47.2481 13.6017 47.1366 13.7658C47.0251 13.9268 46.9275 14.1421 46.8439 14.4115V15.1268C46.8439 15.4892 46.8439 15.8283 46.8439 16.1441C46.8439 16.4569 46.8439 16.7852 46.8439 17.1289H46.0775ZM50.9021 17.2311C50.4623 17.2311 50.0969 17.1196 49.8058 16.8966C49.5147 16.6706 49.2964 16.3748 49.1508 16.0094C49.0053 15.6409 48.9325 15.2414 48.9325 14.811C48.9325 14.3526 49.0099 13.9423 49.1648 13.58C49.3196 13.2177 49.5441 12.9328 49.8383 12.7253C50.1356 12.5147 50.4948 12.4094 50.916 12.4094C51.1297 12.4094 51.3248 12.4388 51.5013 12.4977C51.6809 12.5534 51.8388 12.6293 51.9751 12.7253C52.1114 12.8182 52.2244 12.9219 52.3142 13.0365H52.3932V12.5441C52.3932 12.1539 52.3932 11.7761 52.3932 11.4107C52.3932 11.0422 52.3932 10.6814 52.3932 10.3284L53.1596 10.2355C53.1596 10.6102 53.1596 10.9865 53.1596 11.3643C53.1596 11.739 53.1596 12.1323 53.1596 12.5441V15.0943C53.1596 15.4752 53.1596 15.8236 53.1596 16.1395C53.1596 16.4554 53.1596 16.7852 53.1596 17.1289H52.4907L52.4535 16.4972H52.3792C52.2584 16.6551 52.1237 16.7883 51.9751 16.8966C51.8264 17.005 51.6623 17.0871 51.4827 17.1428C51.3062 17.2017 51.1126 17.2311 50.9021 17.2311ZM51.1343 16.5436C51.3263 16.5436 51.4997 16.5142 51.6546 16.4554C51.8094 16.3934 51.9472 16.3067 52.068 16.1952C52.1919 16.0837 52.3003 15.949 52.3932 15.7911V13.7426C52.2972 13.6032 52.1826 13.4871 52.0494 13.3942C51.9194 13.2982 51.7769 13.227 51.6221 13.1805C51.4672 13.131 51.3093 13.1062 51.1483 13.1062C50.8231 13.1062 50.5552 13.1836 50.3446 13.3385C50.1341 13.4933 49.9761 13.7008 49.8708 13.9609C49.7686 14.2179 49.7175 14.5028 49.7175 14.8156C49.7175 15.116 49.7671 15.3978 49.8662 15.661C49.9653 15.9212 50.1186 16.1333 50.3261 16.2974C50.5335 16.4616 50.803 16.5436 51.1343 16.5436ZM55.5532 17.2311C55.3612 17.2311 55.1677 17.2156 54.9726 17.1846C54.7806 17.1537 54.5994 17.1134 54.4291 17.0639C54.2588 17.0112 54.1101 16.9524 53.9832 16.8874L54.0436 16.1674C54.186 16.2479 54.3378 16.3191 54.4988 16.381C54.6629 16.4399 54.8317 16.4863 55.0051 16.5204C55.1816 16.5514 55.3581 16.5668 55.5347 16.5668C55.705 16.5668 55.8614 16.5483 56.0038 16.5111C56.1494 16.4708 56.264 16.3996 56.3476 16.2974C56.4343 16.1921 56.4776 16.0404 56.4776 15.8422C56.4776 15.7121 56.4405 15.6053 56.3661 15.5217C56.2918 15.4381 56.1664 15.3622 55.9899 15.2941C55.8165 15.2259 55.5811 15.1501 55.2838 15.0665C55.0392 14.9983 54.8209 14.9147 54.6289 14.8156C54.4369 14.7165 54.2851 14.5834 54.1736 14.4161C54.0652 14.2489 54.0111 14.0306 54.0111 13.7612C54.0111 13.3431 54.1473 13.0148 54.4198 12.7764C54.6954 12.5348 55.0655 12.4141 55.53 12.4141C55.722 12.4141 55.9078 12.4311 56.0874 12.4652C56.2671 12.4961 56.4327 12.5379 56.5845 12.5906C56.7362 12.6432 56.8678 12.699 56.9793 12.7578L56.9143 13.4778C56.7656 13.3849 56.6123 13.309 56.4544 13.2502C56.2965 13.1883 56.1447 13.1449 55.9992 13.1201C55.8536 13.0923 55.7251 13.0783 55.6136 13.0783C55.4867 13.0783 55.3597 13.0969 55.2327 13.1341C55.1089 13.1681 55.0051 13.2332 54.9215 13.3292C54.8379 13.4221 54.7961 13.5568 54.7961 13.7333C54.7961 13.8603 54.8255 13.9671 54.8843 14.0538C54.9432 14.1405 55.0454 14.2179 55.1909 14.2861C55.3365 14.3542 55.5378 14.4254 55.7948 14.4997C56.1014 14.5896 56.3631 14.684 56.5798 14.7831C56.7997 14.8791 56.9685 15.0061 57.0861 15.164C57.2038 15.3219 57.2627 15.5403 57.2627 15.819C57.2627 16.0884 57.2038 16.3299 57.0861 16.5436C56.9685 16.7542 56.7842 16.9214 56.5334 17.0453C56.2825 17.1692 55.9558 17.2311 55.5532 17.2311Z" fill="#301C1B"/>
<path d="M43.0835 66.1941C42.2813 66.1941 41.4891 65.9759 40.7939 65.5632L19.8242 53.1171C18.4117 52.2792 17.5347 50.7173 17.5347 49.0411L17.5347 6.6515C17.5347 4.9052 18.9164 3.48438 20.6156 3.48438H65.5509C67.2493 3.48438 68.6314 4.90477 68.6314 6.6515V49.0415C68.6314 50.7177 67.7544 52.2792 66.3423 53.1175L45.373 65.5636C44.6778 65.9763 43.886 66.1941 43.0835 66.1941Z" stroke="#301C1B" stroke-width="0.417602" stroke-miterlimit="10"/>
<path d="M85.9353 30.5762L82.6009 37.6105L85.9353 44.2542H71.3928V30.5762H85.9353Z" fill="#301C1B"/>
<path d="M75.7699 38.2949L71.3931 43.056V38.2949H75.7699Z" fill="#301C1B"/>
<path d="M0 30.5762L3.33438 37.6105L0 44.2542H14.5425V30.5762H0Z" fill="#301C1B"/>
<path d="M10.1611 39.4971L14.538 44.2582V39.4971H10.1611Z" fill="#CC8523" fill-opacity="0.188235"/>
<path d="M75.6966 23.9883H10.4719V39.6056H75.6966V23.9883Z" fill="#301C1B"/>
<path d="M75.7699 39.498L71.3931 44.2591V39.498H75.7699Z" fill="#CC8523" fill-opacity="0.188235"/>
<path d="M25.2839 34.5234C25.2839 34.1193 25.2839 33.7274 25.2839 33.3476C25.2839 32.9679 25.2839 32.5463 25.2839 32.083V29.5641C25.2839 29.0869 25.2839 28.6549 25.2839 28.2681C25.2839 27.8814 25.2839 27.4825 25.2839 27.0714C25.5835 27.0714 25.8883 27.0714 26.1984 27.0714C26.5119 27.0714 26.829 27.0714 27.1495 27.0714C27.4735 27.0714 27.801 27.0714 28.1319 27.0714C28.7033 27.0714 29.2102 27.1533 29.6527 27.3171C30.0986 27.4808 30.4731 27.7229 30.7762 28.0434C31.0828 28.3605 31.3145 28.7472 31.4712 29.2036C31.6315 29.66 31.7116 30.1825 31.7116 30.7713C31.7116 31.2974 31.6419 31.7886 31.5026 32.245C31.3632 32.6979 31.1403 33.0951 30.8337 33.4365C30.5271 33.7779 30.123 34.0444 29.6213 34.236C29.1196 34.4276 28.5082 34.5234 27.787 34.5234C27.463 34.5234 27.1617 34.5234 26.883 34.5234C26.6043 34.5234 26.3343 34.5234 26.073 34.5234C25.8152 34.5234 25.5521 34.5234 25.2839 34.5234ZM26.7523 33.3424H27.787C28.3793 33.3424 28.8514 33.2309 29.2032 33.008C29.5551 32.7815 29.8077 32.4732 29.961 32.083C30.1143 31.6893 30.1909 31.2451 30.1909 30.7504C30.1909 30.3741 30.1456 30.0327 30.055 29.7261C29.9645 29.4196 29.8251 29.1565 29.637 28.9371C29.4523 28.7141 29.2137 28.5451 28.921 28.4301C28.6284 28.3117 28.2817 28.2525 27.8811 28.2525H26.7523C26.7523 28.5068 26.7523 28.7629 26.7523 29.0207C26.7523 29.2785 26.7523 29.5694 26.7523 29.8934V31.7433C26.7523 32.0534 26.7523 32.3356 26.7523 32.5899C26.7523 32.8442 26.7523 33.0951 26.7523 33.3424ZM32.4576 34.5234C32.4576 34.1472 32.4576 33.7831 32.4576 33.4312C32.4576 33.0794 32.4576 32.6874 32.4576 32.2554V31.7329C32.4576 31.3392 32.4576 30.9403 32.4576 30.5361C32.4576 30.132 32.4576 29.7261 32.4576 29.3185L33.5864 29.2506L33.6386 30.2435H33.7536C33.893 29.9474 34.048 29.7244 34.2187 29.5746C34.3894 29.4213 34.5636 29.3185 34.7413 29.2663C34.9224 29.2105 35.0914 29.1827 35.2482 29.1827C35.3318 29.1827 35.4224 29.1896 35.5199 29.2036C35.621 29.2175 35.715 29.2419 35.8021 29.2767L35.6819 30.578C35.5565 30.5605 35.4415 30.5483 35.337 30.5414C35.236 30.5309 35.1228 30.5257 34.9973 30.5257C34.8998 30.5257 34.7953 30.5379 34.6838 30.5623C34.5723 30.5867 34.4626 30.6354 34.3546 30.7086C34.2466 30.7783 34.1438 30.8811 34.0462 31.0169C33.9487 31.1528 33.8616 31.3305 33.785 31.55V32.3234C33.785 32.7205 33.785 33.0933 33.785 33.4417C33.785 33.7866 33.785 34.1472 33.785 34.5234H32.4576ZM36.332 34.5234C36.332 34.1472 36.332 33.7831 36.332 33.4312C36.332 33.0794 36.332 32.6874 36.332 32.2554V31.7329C36.332 31.3984 36.332 31.0971 36.332 30.8288C36.332 30.5571 36.332 30.301 36.332 30.0606C36.332 29.8167 36.332 29.5694 36.332 29.3185L37.6594 29.2767C37.6594 29.5311 37.6594 29.7819 37.6594 30.0292C37.6594 30.2766 37.6594 30.5379 37.6594 30.8131C37.6594 31.0849 37.6594 31.3914 37.6594 31.7329V32.2554C37.6594 32.6874 37.6594 33.0794 37.6594 33.4312C37.6594 33.7831 37.6594 34.1472 37.6594 34.5234H36.332ZM36.98 28.3831C36.7257 28.3831 36.5219 28.3204 36.3686 28.195C36.2153 28.0661 36.1387 27.8623 36.1387 27.5836C36.1387 27.3292 36.2153 27.1359 36.3686 27.0035C36.5219 26.8676 36.7292 26.7997 36.9905 26.7997C37.2518 26.7997 37.4573 26.8694 37.6071 27.0087C37.7604 27.1481 37.8371 27.3397 37.8371 27.5836C37.8371 27.8623 37.7604 28.0661 37.6071 28.195C37.4573 28.3204 37.2483 28.3831 36.98 28.3831ZM41.6256 34.6541C41.3887 34.6541 41.1727 34.6227 40.9776 34.56C40.786 34.4973 40.6101 34.4067 40.4498 34.2883C40.293 34.1698 40.1502 34.027 40.0213 33.8598H39.922L39.7861 34.5234H38.7253C38.7253 34.1472 38.7253 33.7831 38.7253 33.4312C38.7253 33.0794 38.7253 32.6874 38.7253 32.2554V29.3656C38.7253 28.9371 38.7253 28.5155 38.7253 28.1009C38.7253 27.6829 38.7253 27.2718 38.7253 26.8676L40.0527 26.7422C40.0527 27.1568 40.0527 27.5801 40.0527 28.0121C40.0527 28.4406 40.0527 28.8918 40.0527 29.3656V29.8672H40.1676C40.2617 29.7314 40.3801 29.6129 40.523 29.5119C40.6658 29.4074 40.8278 29.3272 41.009 29.2715C41.1901 29.2123 41.3905 29.1827 41.6099 29.1827C42.0733 29.1827 42.4652 29.3029 42.7858 29.5432C43.1063 29.7801 43.3484 30.1059 43.5121 30.5205C43.6759 30.9316 43.7578 31.3949 43.7578 31.9105C43.7578 32.3948 43.6811 32.846 43.5278 33.264C43.3745 33.6821 43.1394 34.0183 42.8223 34.2726C42.5053 34.5269 42.1064 34.6541 41.6256 34.6541ZM41.1449 33.5096C41.434 33.5096 41.6709 33.4347 41.8556 33.2849C42.0437 33.1316 42.1813 32.9348 42.2684 32.6944C42.3555 32.454 42.399 32.1962 42.399 31.921C42.399 31.6318 42.352 31.3688 42.2579 31.1319C42.1674 30.8915 42.028 30.6999 41.8399 30.5571C41.6552 30.4107 41.4201 30.3376 41.1344 30.3376C40.9916 30.3376 40.8539 30.3602 40.7216 30.4055C40.5892 30.4473 40.4655 30.51 40.3505 30.5936C40.2356 30.6738 40.1363 30.7731 40.0527 30.8915V32.8407C40.1328 32.9766 40.2251 33.0951 40.3296 33.1961C40.4341 33.2971 40.5543 33.3755 40.6902 33.4312C40.8261 33.4835 40.9776 33.5096 41.1449 33.5096ZM47.3928 34.6541C47.1559 34.6541 46.9399 34.6227 46.7448 34.56C46.5532 34.4973 46.3772 34.4067 46.217 34.2883C46.0602 34.1698 45.9174 34.027 45.7885 33.8598H45.6892L45.5533 34.5234H44.4925C44.4925 34.1472 44.4925 33.7831 44.4925 33.4312C44.4925 33.0794 44.4925 32.6874 44.4925 32.2554V29.3656C44.4925 28.9371 44.4925 28.5155 44.4925 28.1009C44.4925 27.6829 44.4925 27.2718 44.4925 26.8676L45.8198 26.7422C45.8198 27.1568 45.8198 27.5801 45.8198 28.0121C45.8198 28.4406 45.8198 28.8918 45.8198 29.3656V29.8672H45.9348C46.0289 29.7314 46.1473 29.6129 46.2901 29.5119C46.433 29.4074 46.595 29.3272 46.7761 29.2715C46.9573 29.2123 47.1576 29.1827 47.3771 29.1827C47.8405 29.1827 48.2324 29.3029 48.5529 29.5432C48.8734 29.7801 49.1156 30.1059 49.2793 30.5205C49.4431 30.9316 49.5249 31.3949 49.5249 31.9105C49.5249 32.3948 49.4483 32.846 49.295 33.264C49.1417 33.6821 48.9065 34.0183 48.5895 34.2726C48.2725 34.5269 47.8736 34.6541 47.3928 34.6541ZM46.912 33.5096C47.2012 33.5096 47.4381 33.4347 47.6227 33.2849C47.8109 33.1316 47.9485 32.9348 48.0356 32.6944C48.1227 32.454 48.1662 32.1962 48.1662 31.921C48.1662 31.6318 48.1192 31.3688 48.0251 31.1319C47.9345 30.8915 47.7952 30.6999 47.6071 30.5571C47.4224 30.4107 47.1872 30.3376 46.9016 30.3376C46.7587 30.3376 46.6211 30.3602 46.4887 30.4055C46.3563 30.4473 46.2327 30.51 46.1177 30.5936C46.0027 30.6738 45.9034 30.7731 45.8198 30.8915V32.8407C45.9 32.9766 45.9923 33.0951 46.0968 33.1961C46.2013 33.2971 46.3215 33.3755 46.4574 33.4312C46.5932 33.4835 46.7448 33.5096 46.912 33.5096ZM53.16 34.6541C52.9231 34.6541 52.7071 34.6227 52.512 34.56C52.3203 34.4973 52.1444 34.4067 51.9842 34.2883C51.8274 34.1698 51.6845 34.027 51.5556 33.8598H51.4563L51.3205 34.5234H50.2596C50.2596 34.1472 50.2596 33.7831 50.2596 33.4312C50.2596 33.0794 50.2596 32.6874 50.2596 32.2554V29.3656C50.2596 28.9371 50.2596 28.5155 50.2596 28.1009C50.2596 27.6829 50.2596 27.2718 50.2596 26.8676L51.587 26.7422C51.587 27.1568 51.587 27.5801 51.587 28.0121C51.587 28.4406 51.587 28.8918 51.587 29.3656V29.8672H51.702C51.796 29.7314 51.9145 29.6129 52.0573 29.5119C52.2002 29.4074 52.3622 29.3272 52.5433 29.2715C52.7245 29.2123 52.9248 29.1827 53.1443 29.1827C53.6076 29.1827 53.9996 29.3029 54.3201 29.5432C54.6406 29.7801 54.8827 30.1059 55.0465 30.5205C55.2102 30.9316 55.2921 31.3949 55.2921 31.9105C55.2921 32.3948 55.2154 32.846 55.0622 33.264C54.9089 33.6821 54.6737 34.0183 54.3567 34.2726C54.0396 34.5269 53.6407 34.6541 53.16 34.6541ZM52.6792 33.5096C52.9683 33.5096 53.2053 33.4347 53.3899 33.2849C53.578 33.1316 53.7156 32.9348 53.8027 32.6944C53.8898 32.454 53.9334 32.1962 53.9334 31.921C53.9334 31.6318 53.8863 31.3688 53.7923 31.1319C53.7017 30.8915 53.5623 30.6999 53.3742 30.5571C53.1896 30.4107 52.9544 30.3376 52.6687 30.3376C52.5259 30.3376 52.3883 30.3602 52.2559 30.4055C52.1235 30.4473 51.9998 30.51 51.8849 30.5936C51.7699 30.6738 51.6706 30.7731 51.587 30.8915V32.8407C51.6671 32.9766 51.7594 33.0951 51.864 33.1961C51.9685 33.2971 52.0887 33.3755 52.2245 33.4312C52.3604 33.4835 52.512 33.5096 52.6792 33.5096ZM56.0268 34.5234C56.0268 34.1472 56.0268 33.7831 56.0268 33.4312C56.0268 33.0794 56.0268 32.6874 56.0268 32.2554V29.3656C56.0268 28.9371 56.0268 28.5155 56.0268 28.1009C56.0268 27.6829 56.0268 27.2718 56.0268 26.8676L57.3542 26.7422C57.3542 27.1568 57.3542 27.5801 57.3542 28.0121C57.3542 28.4406 57.3542 28.8918 57.3542 29.3656V32.2554C57.3542 32.6874 57.3542 33.0794 57.3542 33.4312C57.3542 33.7831 57.3542 34.1472 57.3542 34.5234H56.0268ZM60.9192 34.6541C60.2643 34.6541 59.7277 34.5356 59.3097 34.2987C58.8916 34.0618 58.5833 33.7361 58.3847 33.3215C58.1861 32.9069 58.0868 32.4331 58.0868 31.9001C58.0868 31.3705 58.1809 30.902 58.369 30.4943C58.5606 30.0832 58.8411 29.7627 59.2104 29.5328C59.5797 29.3029 60.0326 29.1879 60.5691 29.1879C61.0324 29.1879 61.4279 29.2732 61.7554 29.444C62.0863 29.6112 62.3406 29.8638 62.5183 30.2017C62.696 30.5361 62.7848 30.9577 62.7848 31.4663C62.7848 31.6022 62.7814 31.7241 62.7744 31.8321C62.7709 31.9401 62.7604 32.0464 62.743 32.1509L61.5881 31.6858C61.5951 31.6371 61.6003 31.5883 61.6038 31.5395C61.6073 31.4872 61.609 31.4385 61.609 31.3932C61.609 31.01 61.5132 30.7103 61.3216 30.4943C61.13 30.2749 60.8826 30.1651 60.5795 30.1651C60.3496 30.1651 60.1475 30.2313 59.9734 30.3637C59.7992 30.4926 59.6615 30.6738 59.5605 30.9072C59.4595 31.1406 59.409 31.4106 59.409 31.7172V31.921C59.409 32.2589 59.4682 32.5498 59.5866 32.7937C59.7051 33.0341 59.888 33.2205 60.1354 33.3529C60.3827 33.4818 60.6945 33.5462 61.0708 33.5462C61.2171 33.5462 61.3808 33.534 61.562 33.5096C61.7466 33.4818 61.933 33.44 62.1212 33.3842C62.3093 33.3285 62.4852 33.2571 62.649 33.17L62.6908 34.3092C62.5584 34.3754 62.4034 34.4346 62.2257 34.4869C62.048 34.5391 61.8494 34.5792 61.6299 34.6071C61.4104 34.6384 61.1735 34.6541 60.9192 34.6541ZM58.6094 32.1509V31.32L61.9592 31.2625L62.743 31.5604V32.1509H58.6094Z" fill="white"/>
</svg>
