<svg width="40" height="40" viewBox="0 0 40 40" fill="none" xmlns="http://www.w3.org/2000/svg">
<rect x="0.5" y="0.5" width="39" height="39" fill="white"/>
<rect x="0.5" y="0.5" width="39" height="39" stroke="#D7D4D3"/>
<g clip-path="url(#clip0_10701_535)">
<path d="M17.7241 22.3795L24.3731 17.4435C24.6991 17.2015 25.165 17.2959 25.3203 17.6717C26.1378 19.654 25.7726 22.0362 24.1461 23.6718C22.5197 25.3074 20.2567 25.6661 18.1883 24.8492L15.9287 25.9012C19.1696 28.1289 23.1051 27.578 25.5644 25.1032C27.515 23.1415 28.1192 20.4675 27.5543 18.0562L27.5594 18.0613C26.7402 14.5189 27.7608 13.103 29.8514 10.2077C29.9009 10.139 29.9505 10.0704 29.9999 10L27.2488 12.7666V12.758L17.7224 22.3812" fill="#301C1B"/>
<path d="M16.3521 23.579C14.0259 21.3444 14.427 17.8861 16.4118 15.8918C17.8795 14.4158 20.2842 13.8134 22.3833 14.699L24.6378 13.6521C24.2316 13.3569 23.7111 13.0394 23.1138 12.8163C20.4139 11.699 17.1815 12.255 14.9868 14.4604C12.8757 16.5835 12.2118 19.8478 13.3518 22.6333C14.2034 24.7152 12.8074 26.1877 11.4011 27.674C10.9028 28.2009 10.4028 28.7278 10 29.2856L16.3504 23.5807" fill="#301C1B"/>
</g>
<defs>
<clipPath id="clip0_10701_535">
<rect width="20" height="20" fill="white" transform="translate(10 10)"/>
</clipPath>
</defs>
</svg>
