<svg width="36" height="36" viewBox="0 0 36 36" fill="none" xmlns="http://www.w3.org/2000/svg">
<rect width="36" height="36" fill="white"/>
<path d="M12.5 20C12.5 16.4645 12.5 14.6967 13.5983 13.5983C14.6967 12.5 16.4645 12.5 20 12.5C23.5355 12.5 25.3033 12.5 26.4017 13.5983C27.5 14.6967 27.5 16.4645 27.5 20C27.5 23.5355 27.5 25.3033 26.4017 26.4017C25.3033 27.5 23.5355 27.5 20 27.5C16.4645 27.5 14.6967 27.5 13.5983 26.4017C12.5 25.3033 12.5 23.5355 12.5 20Z" stroke="#301C1B" stroke-width="1.25" stroke-linecap="round" stroke-linejoin="round"/>
<path d="M23.3366 20.0013C23.3366 21.8422 21.8442 23.3346 20.0033 23.3346C18.1623 23.3346 16.6699 21.8422 16.6699 20.0013C16.6699 18.1604 18.1623 16.668 20.0033 16.668C21.8442 16.668 23.3366 18.1604 23.3366 20.0013Z" stroke="#301C1B" stroke-width="1.25" stroke-linecap="round" stroke-linejoin="round"/>
<path d="M24.4824 15.6263H24.3783M24.5866 15.6263C24.5866 15.7414 24.4933 15.8346 24.3783 15.8346C24.2632 15.8346 24.1699 15.7414 24.1699 15.6263C24.1699 15.5112 24.2632 15.418 24.3783 15.418C24.4933 15.418 24.5866 15.5112 24.5866 15.6263Z" stroke="#301C1B" stroke-width="1.25" stroke-linecap="round" stroke-linejoin="round"/>
</svg>
