<svg width="36" height="36" viewBox="0 0 36 36" fill="none" xmlns="http://www.w3.org/2000/svg">
<rect width="36" height="36" fill="white"/>
<path d="M15.4199 17.918H11.6699V28.3346H15.4199V17.918Z" stroke="#301C1B" stroke-width="1.25" stroke-linejoin="round"/>
<path d="M15.4199 13.543C15.4199 14.5785 14.5805 15.418 13.5449 15.418C12.5094 15.418 11.6699 14.5785 11.6699 13.543C11.6699 12.5074 12.5094 11.668 13.5449 11.668C14.5805 11.668 15.4199 12.5074 15.4199 13.543Z" stroke="#301C1B" stroke-width="1.25" stroke-linejoin="round"/>
<path d="M21.67 17.918H17.9199V28.3346H21.67V23.1265C21.67 22.3211 22.3228 21.6681 23.1283 21.6681C23.9337 21.6681 24.5866 22.3211 24.5866 23.1265V28.3346H28.3355L28.3367 21.6681C28.3367 19.5971 26.3669 17.9182 24.4173 17.9182C23.3073 17.9182 22.3172 18.4622 21.67 19.313V17.918Z" stroke="#301C1B" stroke-width="1.25" stroke-linejoin="round"/>
</svg>
