<svg width="1088" height="195" viewBox="0 0 1088 195" fill="none" xmlns="http://www.w3.org/2000/svg">
<path d="M75.5532 145.245L60.3165 219.444H0L44.7645 3.7875C65.7807 1.95039 94.1526 0.113281 111.911 0.113281C179.794 0.113281 211.108 24.7101 211.108 64.208C211.108 106.155 174.014 145.245 88.3731 145.245H75.6583H75.5532ZM98.4609 107.584C130.405 107.584 149.635 90.6419 149.635 67.2698C149.635 48.7967 138.392 37.6719 112.542 37.6719H98.0406L83.5394 107.584H98.4609Z" fill="#301C1B"/>
<path d="M337.411 171.066H250.929L221.192 219.444H159.824L290.965 17.5658L356.641 0.113281L407.815 219.444H347.499L337.306 171.066H337.411ZM329.74 132.589L315.975 64.5141L273.837 132.589H329.74Z" fill="#301C1B"/>
<path d="M516.89 82.6811L488.518 219.444H434.086L479.586 0.113281H523.825L612.514 146.163L642.672 0.113281H697.104L651.709 219.444H600.534L516.995 82.6811H516.89Z" fill="#301C1B"/>
<path d="M860.61 219.444H683.023L689.959 187.702L822.466 43.5915H722.219L730.94 0.113281H903.168L896.233 35.5286L764.356 179.64H871.854L860.61 219.342V219.444Z" fill="#301C1B"/>
<path d="M935.422 0.102062H1088L1078.75 44.4988H986.491L976.719 91.8554H1062.78L1054.79 130.435H968.733L958.54 178.71H1050.91L1042.5 219.33H889.922L935.317 0L935.422 0.102062Z" fill="#301C1B"/>
</svg>
