<svg width="40" height="40" viewBox="0 0 40 40" fill="none" xmlns="http://www.w3.org/2000/svg">
<rect x="0.5" y="0.5" width="39" height="39" fill="white"/>
<rect x="0.5" y="0.5" width="39" height="39" stroke="#D7D4D3"/>
<g clip-path="url(#clip0_10701_529)">
<path fill-rule="evenodd" clip-rule="evenodd" d="M13.3274 10L19.3924 15.2472V15.2459V10.0121H20.573V15.2706L26.6651 10V15.9825H29.1663V24.6118H26.6728V29.9389L20.573 24.9066V29.9967H19.3924V24.9896L13.3343 30V24.6118H10.833V15.9825H13.3274V10ZM18.5023 17.0776H12.0136V23.5167H13.3328V21.4856L18.5023 17.0776ZM14.5148 21.9715V27.5565L19.3924 23.5225V17.8115L14.5148 21.9715ZM20.607 23.4691V17.8061L25.4859 21.9663V24.6118H25.4922V27.4994L20.607 23.4691ZM26.6728 23.5167H27.9857V17.0776H21.5453L26.6728 21.4399V23.5167ZM25.4845 15.9825V12.5189L21.481 15.9825H25.4845ZM18.5115 15.9825H14.508V12.5189L18.5115 15.9825Z" fill="#301C1B"/>
</g>
<defs>
<clipPath id="clip0_10701_529">
<rect width="20" height="20" fill="white" transform="translate(10 10)"/>
</clipPath>
</defs>
</svg>
