<svg width="18" height="12" viewBox="0 0 18 12" fill="none" xmlns="http://www.w3.org/2000/svg">
<path d="M18 0.585914V11.1426C16.3894 11.9102 14.4473 12.0635 12.5999 11.6799C12.458 11.6799 8.47898 10.8357 6.53687 10.6439C5.77873 10.6057 5.02101 10.5287 4.26329 10.5672C2.7946 10.6439 1.3735 10.7975 0 11.1426V0.585914C1.3735 0.240823 2.7946 0.0871438 4.26329 0.0105006C5.02101 -0.0280176 5.77873 0.0490186 6.53687 0.0871437C6.68604 0.101686 6.84753 0.120552 7.01794 0.14217C9.06757 0.403543 12.469 1.1232 12.5999 1.1232C14.4473 1.5072 16.3894 1.35353 18 0.585914Z" fill="#B31942"/>
<path d="M18 6.0792V7.79443C16.3962 8.39736 14.5335 8.49444 12.7542 8.14424C12.6042 8.14424 8.40376 7.29999 6.35371 7.10818C5.5535 7.07006 4.75328 6.99302 3.95349 7.03154C2.59741 7.09875 1.27958 7.22452 0 7.48629V5.77734C1.27958 5.51518 2.59741 5.38941 3.95349 5.3222C4.75328 5.28407 5.55435 5.34735 6.35371 5.39923C8.43351 5.53405 12.6084 6.41368 12.7542 6.43529C14.6797 6.72025 16.4021 6.6385 18 6.0792Z" fill="white"/>
<path d="M18 9.58419V11.2613C16.3894 12.0289 14.4473 12.1822 12.5999 11.7986C12.458 11.7986 8.47898 10.9543 6.53687 10.7625C5.77873 10.7244 5.02101 10.6474 4.26329 10.6859C2.7946 10.7625 1.3735 10.9162 0 11.2613V9.27565C1.27958 9.01388 2.59741 8.88811 3.95349 8.8209C4.75328 8.78277 5.5535 8.85942 6.35371 8.89793C8.40376 9.08974 12.6042 9.93399 12.7542 9.93399C14.5335 10.2842 16.3962 10.1867 18 9.58419Z" fill="white"/>
<path d="M18.0002 2.74609V4.45582C16.3959 5.05836 14.5333 5.15583 12.7544 4.80563C12.6141 4.80563 8.96323 4.07379 6.80566 3.81792L6.83159 2.11133C8.99213 2.36995 12.6146 3.0959 12.7544 3.0959C14.5333 3.4461 16.3959 3.34902 18.0002 2.74609Z" fill="white"/>
<path d="M7.01794 0.14217V0.142563L6.94145 5.45178C3.88507 5.12634 1.21201 5.60074 0 5.87783V0.585914C1.3735 0.240823 2.7946 0.0871438 4.26329 0.0105006C5.02101 -0.0280176 5.77873 0.0490186 6.53688 0.0871437C6.68604 0.101686 6.84753 0.120552 7.01794 0.14217Z" fill="#0A3161"/>
<path d="M1.75056 1.04883L1.98939 1.4965L2.524 1.56843L2.13728 1.91706L2.22865 2.40915L1.75056 2.17686L1.27289 2.40915L1.36384 1.91706L0.977539 1.56843L1.51173 1.4965L1.75056 1.04883Z" fill="white"/>
<path d="M1.97071 3.2832L2.20954 3.73088L2.74373 3.8028L2.35701 4.15143L2.44837 4.64352L1.97071 4.41123L1.49262 4.64352L1.58399 4.15143L1.19727 3.8028L1.73145 3.73088L1.97071 3.2832Z" fill="white"/>
<path d="M3.66462 1.91016L3.90388 2.35783L4.43806 2.42976L4.05134 2.77799L4.14271 3.27008L3.66462 3.03779L3.18696 3.27008L3.27832 2.77799L2.8916 2.42976L3.42579 2.35783L3.66462 1.91016Z" fill="white"/>
<path d="M5.57911 0.673828L5.81794 1.1215L6.35213 1.19343L5.96541 1.54167L6.05677 2.03375L5.57911 1.80147L5.10102 2.03375L5.19239 1.54167L4.80566 1.19343L5.33985 1.1215L5.57911 0.673828Z" fill="white"/>
<path d="M5.39704 3.21484L5.6363 3.66252L6.17049 3.73445L5.78376 4.08268L5.87513 4.57477L5.39704 4.34248L4.91938 4.57477L5.01075 4.08268L4.62402 3.73445L5.15821 3.66252L5.39704 3.21484Z" fill="white"/>
</svg>
